<?xml version="1.0" encoding="utf-8"?>
<!-- Generator: Adobe Illustrator 16.0.0, SVG Export Plug-In . SVG Version: 6.00 Build 0)  -->
<!DOCTYPE svg PUBLIC "-//W3C//DTD SVG 1.1//EN" "http://www.w3.org/Graphics/SVG/1.1/DTD/svg11.dtd">
<svg version="1.1" id="Layer_1" xmlns="http://www.w3.org/2000/svg" xmlns:xlink="http://www.w3.org/1999/xlink" x="0px" y="0px"
	 width="400px" height="472.467px" viewBox="-100.412 -118.603 400 472.467" enable-background="new -100.412 -118.603 400 472.467"
	 xml:space="preserve">
<path id="Drenthe" fill="#DBDBDB" stroke="#FFFFFF" stroke-width="0.8135" stroke-linejoin="bevel" stroke-miterlimit="10" d="
	M217.54-50.959l-1.491,0.747l-0.747,0.747v0.747l-1.491,0.745l-1.492,0.749l-0.746,0.745v0.747l-0.747,0.745l-0.745,1.494
	l-0.748,0.747v0.747l-1.489,3.731v0.747v2.238h-0.749l-0.745,2.987h-0.748l-2.234-0.747l-0.749,1.494l2.238,1.491h2.236l1.493,0.747
	l-0.746,2.24v2.238v0.747l1.489,2.24l2.983,4.479l0.748,1.491l0.747,1.494l0.745,0.745l-2.238,3.733v0.745l-0.745,0.747
	l-0.747,0.745l-2.236,2.24l-2.984,2.24l-2.987-2.985h-2.234l-2.238-0.745l-1.491,0.745v0.747v0.747l-1.491,0.747l-2.238,2.985
	l-0.745,0.749l-0.747,0.745l-2.984,1.491l-1.491,1.494l-2.236,1.493l0.744,1.492v0.749l2.238,2.236l0.747,0.749l1.491,1.492
	l0.745,0.747l0.748,0.747l0.745,1.494h0.745l-0.745,1.491l-0.745,0.745l-1.493,1.493v0.745h-0.745l-0.746,0.749l-2.238,0.745
	l-0.747,0.735h-0.744v0.745l0.744,1.494l0.747,1.493l0.747,1.492v0.747v0.747l1.491,2.24v0.745l1.491,0.747v0.747l-0.746,0.747
	l2.237,0.747l-0.746-0.747l0.746-0.747v0.747l0.747,0.747v-0.747l0.745-0.747h0.748h0.745h0.745v0.747h0.748h0.747h0.747v0.747
	l0.744,0.745h0.749v0.749h0.744h0.749v-0.749h0.747v0.749h0.744h0.747h0.748l0.745-0.749h0.745h0.748v0.749h-0.748v0.745h0.748V37.1
	l0.747,0.747h0.747l0.744,0.747h0.749v0.745v0.749h0.745v0.745l0.748,0.747v1.493l0.747,0.745h0.744v-0.745h0.747h0.745v-0.749
	h0.748v0.749h0.745v-0.749l0.748-0.745h0.747v0.745v0.749h0.745l0.746,0.745l0.749-0.745l0.745-0.749v-0.745l0.744,0.745
	l0.749,0.749h1.489h0.749l0.746,0.745h0.745v-0.745l-0.745-4.478l1.492-1.494l1.489-1.491l0.749-0.749h2.982l2.238-0.745h0.745
	v-0.747l1.493,0.747l1.489,0.745l1.494,0.749l2.982,1.491h1.49l0.748,0.747l-0.748,0.747v0.745v0.749v0.745h0.748l0.745-0.745h0.747
	l0.746-0.749l0.745-1.491h1.493h0.745l0.746-0.747h0.747h0.749h0.744h0.747h0.746l0.745,0.747l0.749-0.747h0.748h1.488h1.491
	l0.745-0.747l0.748,0.747h1.49h0.748l1.49,0.747v0.747h0.748h1.489h0.745h0.749h1.489l0.749-0.747h0.746l0.747,0.747l0.746-0.747
	v0.747h0.747l2.238,0.745h0.745l1.491-1.491V37.1v-1.491v-2.985l0.747-7.463V15.46v-4.479l2.238-4.478h-2.238V5.01l-0.747-0.745
	l-1.491-2.24h-0.745V1.28h-2.238V0.533l1.489-4.478l0.749-0.747v-1.494h-1.493l-0.745-0.745l-0.747-0.749l-0.746-1.492l-1.491-2.238
	h-0.747v-0.747h-0.745l-0.748-1.493l-0.749-1.494l-0.745-0.745l-0.744-0.747v-0.747l-0.747-0.747l-1.491-1.492l-1.493-1.493
	l-0.745-0.745l-3.731-3.734l-2.236-2.24l-2.238-2.238v-0.747l-2.985-2.238l-0.744-1.492l-2.983-2.24v-0.747h-0.749l-0.746-0.747
	h-0.747h-0.746h-2.236l-1.492,0.747h-0.746l-3.731,1.494v-0.747l-0.745-0.747l0.745-0.747h-0.745v-0.747l-0.749-0.747l-0.746-0.747
	l-0.745-0.745v-0.747h-1.493v-0.747l-0.745-0.747v-0.745v-0.749l-1.491,0.749l-0.747-0.749v-0.745l-0.745-2.24l-0.746,0.747
	l-0.749-0.747l-0.744-2.238h-1.494l-0.744-0.747l-0.745,0.747l-0.749-0.747h-0.746h-1.503V-50.959z M277.216,5.01h0.744V4.265
	L277.216,5.01z"/>
<path id="Overijssel" fill="#DBDBDB" stroke="#FFFFFF" stroke-width="0.814" stroke-linejoin="bevel" stroke-miterlimit="10" d="
	M184.716,5.01l-2.238,1.494l-0.745,0.747l-0.747,0.747h-2.237h-0.747l0.747,1.492v0.749h-0.747l-0.745,0.745l-1.493,0.747v-1.491
	l-2.236,0.745l-0.747,0.747v-0.747h-0.744l-0.749-0.745l-0.748-1.494V7.25l-1.49,0.747v0.747l-1.489-0.747v0.747h-1.493
	l-0.745,0.745v0.749l-0.745,0.745v0.747l-0.748,0.747h-0.747v0.747h-0.747l-0.746,0.745h-0.747h-0.744h-0.749l-0.747-0.745h-0.746
	h-0.745v-0.75h-0.747h-0.746v-0.745h-0.745l-1.493,1.493l0.746,1.492l0.747,0.749l0.747,0.745v0.745h1.491h1.489l0.747,0.749
	l2.238,0.747l0.747,1.491l0.744,0.747h0.749l1.489,1.491l0.747,2.24l1.491,2.987v0.745h0.747l0.746,0.747v0.745l0.749,0.749v0.745
	v0.747l-1.493,0.747l-0.745,0.747l-0.747,0.747v0.747v0.747h0.747v-0.747l1.489,0.747h0.749l1.489,0.745l0.749,0.747l0.744,0.747
	h1.492l0.746,1.491l-0.746,0.749l-2.236,1.492h-0.749l-2.238,0.747v0.747l-1.489,0.745h-0.747l-1.491,0.747l-0.745-0.747
	l-0.748-0.745l-5.97,1.492l-0.745,0.747v1.492v0.749v0.745l0.745,0.747v0.747l-2.983-0.747l0.747,0.747h0.746h0.749v0.747
	l0.745,0.745v0.747v0.749l0.744,0.745l0.749,0.747v0.747v0.747l0.745,0.745v1.494v1.491l1.491-0.745l0.746,0.745l1.492,2.24
	l0.746,1.493l1.49,2.238v1.492l1.493-0.745l0.745-0.747l0.746-0.745v0.745l0.747,0.747l0.745-0.747l1.493-1.493l1.491-1.492
	l0.747-0.747h0.744h0.745l0.749-0.747l0.748,0.747h0.745l0.747,0.747l0.746,0.747v0.745v0.749l0.745,0.745l2.238,0.747l0.748,0.745
	v0.749l0.747,2.238v1.491l0.746,0.747l0.745,0.747v1.491l-0.745,0.747v0.747v1.493l0.745,0.745h0.747v0.747v0.747v1.492h-0.751
	v0.747h-0.744l-1.494,0.747h-1.489v0.747h-0.747v0.745l0.747,0.749h0.745l0.748,0.745h-0.748l-0.745,0.747h-0.747v1.493v1.492v1.493
	h-0.746v0.747h0.746h0.747v0.747v2.24h0.745h0.748h0.747v0.745v0.747h0.746v2.238l0.745,0.747l0.747,0.747v0.747v0.745v0.749
	l0.746,0.745h0.745h0.749h0.746v0.747h-0.746l-0.749,0.745v0.749l0.749,1.492h0.746h0.747v-0.745l1.491-0.747h0.747v0.747h1.491
	h0.745l0.746,0.745v-0.745h0.747h0.747h0.744h1.494h0.744l0.749,0.745l0.746-0.745h0.745h0.747h0.748v0.745h2.234v-0.745h1.492
	v-1.493h0.746l0.749-0.745h1.489h0.749l0.744-0.747v0.747h0.745h0.749h1.489h0.749v0.745v0.749l0.746,1.492l2.236,1.493v1.493h0.747
	v0.747h1.491v1.491l0.747,0.747v0.747h0.744l0.747,0.745l1.491-0.745h0.747l3.731,0.745l2.983-0.745h0.748l1.49,0.745l-0.745,0.749
	l0.745,0.745l0.746,0.747v-0.747l0.747-0.745l0.746-0.749l0.747,0.749v0.745l0.749-1.494h0.744l2.238,1.494v0.747v0.747v2.238
	l-1.493,2.238h1.493h0.745l1.493,0.747l1.49,0.747h0.748h4.473h5.97h2.238l0.745-0.747l0.746-0.747l0.747-0.746v-0.747l0.745-3.731
	h0.748v-0.747l2.238-1.494v-0.745l2.234-0.747h2.238l0.749-1.494v-0.745l0.746-0.747v-0.747l0.747-0.747v-0.747v-0.747v-0.745
	l0.745-0.747l1.493-0.749l0.745,0.749h0.748H275h1.491l2.236-1.493v-0.747l-2.236-2.985l-0.746-0.747v-1.492h-0.747v-0.749v-0.745
	v-0.747v-0.745l0.747-2.24v-0.747h0.746v-0.747h0.747v-0.745v-0.749l0.744-1.492v-0.747l1.494-2.238v-3.733l-1.494-2.985v-0.752
	v-0.749h-0.744h-0.747h-0.746l-0.747-1.492l-0.745-1.493l-1.491-1.494v-0.745l-0.747-1.492v-1.493l-0.746-1.494v-0.745h-0.749
	h-0.745l-0.746,1.493l-0.747,2.238l-1.491,0.747v0.747h-0.747l-3.729-0.747l-1.491-0.747l-2.238-0.747h-1.49l0.745-1.492h-1.491
	h-2.236h-4.477h-1.489l-0.745-0.749l-2.987-1.491l-0.746-0.747l-1.491-0.747l0.748-5.97l-1.493-2.238l-1.49-2.985h0.745l1.491,0.745
	h1.492l0.746-2.24h1.492l1.493,0.747l0.745-0.747l-4.477-3.73v-1.493l0.746-2.985v-0.749l-0.746-0.745l-0.745-0.747h-0.748V40.08
	v-0.747v-0.745l0.748-0.747l-0.748-0.747h-1.49l-2.982-1.492l-1.494-0.749l-1.489-0.745l-1.493-0.747v0.747h-0.745l-2.238,0.745
	h-2.983l-0.748,0.749l-1.489,1.492l-1.492,1.493l0.745,4.479v0.745h-0.745l-0.746-0.745h-0.749h-1.489l-0.749-0.749l-0.745-0.745
	v0.745l-0.744,0.749l-0.749,0.745l-0.746-0.745h-0.745v-0.749v-0.745h-0.747l-0.748,0.745v0.749h-0.745v-0.749h-0.749v0.749h-0.744
	h-0.747v0.745h-0.745l-0.746-0.745v-1.494l-0.749-0.747v-0.745h-0.744v-0.749v-0.745h-0.749l-0.746-0.747h-0.745l-0.747-0.747
	v-0.747h-0.748v-0.745h0.748v-0.749h-0.748h-0.745l-0.745,0.749h-0.748h-0.747h-0.745v-0.749h-0.746v0.749h-0.749h-0.744v-0.749
	h-0.749l-0.745-0.745v-0.747h-0.746h-0.747h-0.748v-0.749h-0.745h-0.745h-0.748l-0.747,0.749v0.747l-0.745-0.747v-0.749
	l-0.746,0.749l0.746,0.747l-2.238-0.747l0.747-0.749V31.87l-1.491-0.747v-0.739l-1.492-2.24v-0.747v-0.747l-0.746-1.492
	l-0.747-1.493l-0.745-1.494v-0.745h0.745l0.747-0.747l2.238-0.747l0.746-0.747h0.745v-0.745l1.493-1.494l0.745-0.745l0.745-1.493
	h-0.745l-0.745-1.492l-0.748-0.749l-0.745-0.745l-1.491-1.492l-0.747-0.749l-2.238-2.238V6.501L184.716,5.01z M189.937,106.5v0.745
	v0.749l0.749-0.749L189.937,106.5z"/>
<path id="Gelderland" fill="#DBDBDB" stroke="#FFFFFF" stroke-width="0.8135" stroke-linejoin="bevel" stroke-miterlimit="10" d="
	M161.591,58.74l-1.492,0.745v0.749l-0.744,2.238l-0.749,1.491v0.747v0.747l-0.745,1.491v0.749v0.747l-0.744-0.747v1.492h-0.749
	v-0.747v-0.747l-0.746,1.491v0.745h0.746v0.749h-0.746l0.746,0.747l-0.746,0.745l-0.747,0.749l-2.238,2.238l-1.491,1.492
	l-1.492,0.749v0.745h-0.746l-0.745,0.747h-0.747l-0.746,0.745v0.749h-0.747v0.745h-0.744h-0.749l-1.489,0.747l-0.749,0.747h-0.746
	l-0.745,0.747l-1.493,0.745h-0.739l-0.745,0.749l-0.749,0.745v0.747h-0.746h-0.745v0.747v0.747h-0.746v0.745h-0.749v0.747h-0.745
	v0.749l-1.493,0.745l-0.745,0.747l-0.744,0.747v0.747l-0.749,1.491v1.494l-0.747,1.493v0.745l-0.744,1.494l-0.747,0.747h-2.986
	h-0.745l-1.493,1.492l-0.745-0.747l-0.745,0.747l-2.237,0.747h-1.494l-0.744,0.747h-1.494l-0.744,3.732v0.747l1.489,0.747v-0.747
	l2.987,2.24v0.745v0.747v0.747v0.747v2.238l0.744,0.747h3.731v0.745h-0.748l0.748,0.749v0.745v0.747h0.747h0.747v1.491h1.491v0.747
	v0.746h-1.491v0.747v0.747h0.744v0.746h-0.744h-0.747v0.749l-0.747,0.744v1.494v0.744l-0.748,0.749l-0.745,0.747h-0.745v0.746
	l0.745,0.747l1.49,0.746h0.748h0.745l0.748-0.746l0.747-0.747h0.745l0.746-0.746v-0.747h0.749v-0.749v-0.744l-0.749-0.749
	l2.238-0.746l0.749,1.493v0.744v0.749v0.747l0.744,0.746l-0.744,0.747v0.746v3.732h1.487v0.746H131l2.238,1.492v2.237v0.749v0.745
	v0.748l0.745,0.747l0.747,0.745h0.748v0.75l0.745,1.489v0.749l0.748,0.745l-0.748,0.746l0.748,0.747v0.746v0.749l-0.748,0.745
	l-1.489,0.748l-1.492-0.748l-2.238-0.745l-1.491-0.749l-0.747-1.491h-0.744h-0.747l-0.749-0.746h-0.744l-1.493-0.745l-0.745-0.749
	h-0.749h-0.744h-2.238l-0.747-0.746h-0.745l-0.746,0.746l-0.749,0.749h-0.744l-1.494,0.745h-0.744l-0.745,0.746h-0.749l-1.489-0.746
	l-0.749,0.746h-0.744l-0.747,0.747v0.746h-0.746l-0.749,0.749h-0.745l-0.746-0.749l-0.747-0.746h-2.238h-0.744l-1.494-1.492
	l-1.491-0.744h-0.745h-0.746v1.489l-0.745,0.747l-0.748,0.746h-0.746h-0.745l-0.746-0.746l-0.745-0.747l-0.748,1.491l-0.746,2.24
	l-1.491,1.49l-0.747,0.748h0.747l-0.747,0.747l-0.746,1.491h-0.745v0.747l-0.746,2.238l-0.746,0.746v0.747h-0.739H84.01h-0.746
	v1.493l-0.747,0.745h-0.746h-0.746h-0.745v0.746v0.749l0.745,0.745v0.748h-0.745l-0.746-0.748l-2.237,0.748l-0.746-0.748
	l-1.493,0.748l-0.746-0.748v0.748v0.747l0.746,0.747h-0.746l0.746,0.746h0.745h0.748h1.491l-0.745,2.983v0.75h-1.493v0.745v0.747
	h0.748l0.746,0.748l1.491,0.745l0.747,0.746h0.746v0.749l0.745,0.747v0.746h0.746v0.747h0.746l0.747-0.747l0.746-0.746h0.745
	l0.746,0.746l0.748,0.747l2.237,0.746v0.747v0.745v0.752l0.746,0.747l-0.746,0.746l-0.745,0.751h-0.746v0.746l0.746,0.747
	l1.491-0.747h1.493h1.49h0.748h1.491h0.746h0.745l0.748-0.746l0.746,0.746l1.491,0.747l0.747,0.75l0.746-0.75l0.746-0.747h1.49
	l1.491,0.747h0.745v-0.747l1.493-0.746l3.731-1.492v-0.746h0.747v-1.491v-1.492l0.746-1.491v-0.747l1.492-2.238l0.746-0.746
	l0.745-0.749v-0.744l0.747-0.749h0.746v0.749l0.745,0.744l0.748,0.749h0.747h1.491h1.49l0.744-0.749l0.749-1.491v-0.747h0.747h0.746
	h0.747l0.747,0.747v0.748h0.744h0.749l0.746,0.745h0.747l0.745-0.745v-0.748l0.748-0.747h0.745h1.491h0.747h0.744l1.494,0.747
	l0.744,0.748h0.749h1.482l0.744,0.745v1.493l0.749,0.745l0.746,0.749l0.745,0.746h0.747h0.748l0.745,0.747h0.749v1.491h0.744
	l0.747,0.747h0.747h0.748l0.745,0.746l0.744,0.749v0.748l0.749,0.747h0.747h0.744h1.493h0.745l2.238-0.747h0.747h2.236h1.491h0.747
	h0.746v-0.748v-0.749l-0.746-0.746l0.746-0.747h1.492h0.746l0.749,0.747l0.744,0.746v0.749l0.745,0.748v0.747l0.749,0.749h0.744
	v0.748l0.747,0.747h0.747l0.748-0.747v-0.748l0.745-0.749l1.493-0.747h0.745l0.746-1.491v-0.746h-0.746v-1.498h0.746l-0.746-0.746
	h-0.745v-0.747v-0.748v-0.747l-1.493-1.489h-0.745h-0.748v-0.749l0.748-0.745h0.745l-1.49-0.748l1.49-2.238h0.746v0.747h1.492h0.746
	l1.492-0.747h0.744l0.747-0.747l0.747-0.746l0.746,0.746l0.747-0.746l0.748-0.747h0.745l-0.745-0.745l0.745-0.75l0.747-0.745
	l0.746,0.745l1.492,1.493h0.746h0.745l2.982,0.747h2.238l0.749,0.746v-1.491v-0.745v-0.75v-0.745l-1.489-0.746h-0.749v-0.749v-0.745
	l-0.749-1.493l-0.744-0.746h-1.513h-0.744l0.744-0.747v-0.745h0.747l0.747,0.745l2.982-1.491l0.749,0.748h0.746l0.747,0.745
	l1.491,0.747v0.746h-1.491l0.745,0.749l0.748,0.746l0.745,0.745l1.491,0.749h1.492v-0.749h1.491l0.745,0.749h0.746v-0.749h0.749
	v-0.745l0.744,0.745l2.238,0.749v0.746l0.745,1.493v0.745l1.493-0.745h1.49h0.748l0.745,0.745h0.748l0.745,0.747v0.748v0.745h0.747
	h0.746h0.745l1.491,0.747h0.747l-0.747-1.49l0.747,0.745l-0.747-1.491v-0.747l0.747-0.745h-0.747v-0.75h-0.744l-0.747-0.745v-0.747
	v-1.491l1.489,0.745h0.749l0.747,0.748h0.744v0.747h0.747h0.748l0.745-0.747l0.745,1.49h0.748l0.747,0.75l0.745-0.75l2.237-0.745
	v-0.747v-0.748h0.747l0.749-0.745h0.744h0.747l0.747-0.746v-0.749h0.746l0.745-0.747v0.747h0.75l0.745-0.747l1.489-0.746
	l3.732-1.491h0.746h0.747v-0.747l1.489-0.745l1.493-0.75h0.745l0.747-0.745v0.745h0.746h0.747v0.75l0.747,0.745l1.489,1.493
	l1.493-0.748v-0.747h0.745l0.747-0.745h0.746v-0.75l0.749-0.745h0.744l1.494-2.238l0.744-0.746v-0.747v-0.747v-2.239l1.492-0.747
	h1.487l0.751-1.491l-0.751-0.747v-1.491v-0.747l-2.234-0.747h0.747l-4.475-2.984l-0.749-0.749l-0.746-1.489l-3.73-1.493h-2.984
	v-0.745v-1.493v-0.747l0.746-0.746v-0.747v-0.747h2.238l1.49-0.746l1.493-0.745v-0.75v-0.745v-0.747h0.745v-0.748l0.746-2.985
	h-4.475h-0.746l-1.492-0.746l-1.491-0.747h-0.747h-1.491l1.491-2.236v-2.24v-0.747v-0.747l-2.238-1.494h-0.744l-0.747,1.494v-0.745
	l-0.746-0.749l-0.745,0.749l-0.749,0.745v0.747l-0.746-0.747l-0.747-0.745l0.747-0.749l-1.492-0.745h-0.746l-2.983,0.745
	l-3.729-0.745h-0.749l-1.489,0.745l-0.749-0.745h-0.744v-0.747l-0.745-0.745v-1.493h-1.493v-0.747h-0.745v-1.494l-2.238-1.493
	l-0.748-1.492v-0.747v-0.747h-0.747h-1.491h-0.747h-0.744v-0.747l-0.747,0.747h-0.745h-1.491l-0.747,0.747h-0.748v1.491h-1.49v0.745
	h-2.238v-0.745h-0.748h-0.745h-0.745l-0.748,0.745l-0.747-0.745h-0.744h-1.492h-0.746h-0.747h-0.748v0.745l-0.745-0.745h-0.745
	h-1.493v-0.747h-0.749l-1.493,0.747v0.745l0.749,0.747l-0.749,0.747v-0.747v-0.747h-0.745h-0.746l-0.747-1.492v-0.747l0.747-0.747
	h0.746v-0.747h-0.746h-0.747h-0.746l-0.747-0.745v-0.749v-0.745v-0.747l-0.748-0.747l-0.745-0.747v-2.238h-0.745v-0.747v-0.745
	h-0.748h-0.745h-0.747v-2.24v-0.747h-0.746h-0.749v-0.747h0.749v-1.493v-1.492v-1.493h0.746l0.747-0.747h0.745l-0.745-0.745h-0.747
	l-0.746-0.749v-0.745h0.746v-0.747h1.492l1.489-0.747h0.745v-0.747h0.748v-1.492v-0.747v-0.747h-0.741l-0.744-0.745v-1.494v-0.747
	l0.744-0.747v-1.492l-0.744-0.747l-0.747-0.747v-1.492l-0.747-2.238v-0.749l-0.748-0.745l-2.238-0.747l-0.745-0.745v-0.749v-0.745
	l-0.746-0.747l-0.747-0.747h-0.745l-0.748-0.747l-0.749,0.747h-0.744h-0.745l-0.747,0.747l-1.491,1.492l-1.493,1.493l-0.745,0.747
	l-0.747-0.747v-0.75l-0.746,0.745l-0.745,0.747l-1.493,0.745v-1.504l-1.489-2.238l-0.747-1.494l-1.491-2.24L161.591,58.74z
	 M136.976,85.604l-1.491-0.747l0.745,0.747H136.976z"/>
<path id="Utrecht" fill="#DBDBDB" stroke="#FFFFFF" stroke-width="0.8135" stroke-linejoin="bevel" stroke-miterlimit="10" d="
	M75.803,94.558v0.747h-0.745v0.747v0.745l-1.491-0.745v0.745l-1.494,0.749v0.745H71.33h-0.746h-0.745l-1.493-0.745l-0.745,0.745
	v0.747l0.745,0.745l-0.745,0.749l-0.746,0.745v0.747H66.11h-0.748v0.747l-0.745-0.747h-0.746h-0.746l-0.747,0.747l-1.49,0.747v0.745
	h-0.746l-0.748,0.749h-0.745v0.747h-0.75l-0.745,0.745h-0.746h-0.748h-0.745v0.745l0.745,0.749v1.492v0.749h0.748v0.745l0.746,0.747
	h0.745v0.747l0.746,0.747l0.745,0.745h1.493l0.745,0.749l2.983,2.236l-2.237,0.749v2.985H61.63h-0.745h-1.493h-0.745v-0.746h-1.491
	l-0.746,0.746l-0.748,0.747h0.748l-0.748,0.746v0.747h-0.745h-0.746v0.747l2.984,1.493l0.745,0.745h-0.745v2.238l0.745,2.239v0.747
	h0.746l-0.746,0.745h1.491h2.984l-0.746,0.748l-0.745,0.747H60.14l-2.238,1.493l-0.745,2.238l-0.746,0.745h-0.748v0.746
	l-0.745,0.747l0.745,1.493h0.748l0.746-0.748h0.745h0.746h0.745h0.748l0.746,2.239H60.14l-2.983,0.747l0.745,0.745l0.746,1.493
	l0.745,1.491l0.748,0.747l0.746,0.747l0.745,0.746v0.747l0.746,0.748v1.492v0.746h0.747h1.491h0.746l0.748-0.746h0.745v-0.749h0.746
	l0.745-1.491l0.746-0.747h0.748h0.745l0.746,0.747h0.745l0.748-0.747v-0.746l0.746-0.747l0.745-0.747h0.746h0.745l1.493,1.492h0.746
	l0.746-0.747v-0.747h0.747h0.746l0.745,2.238l-0.745,1.494l2.983,0.744l1.491,0.747l2.984,1.491h0.745h0.746h0.747l1.492-1.491
	l0.745-2.238l0.748-1.491l0.745,0.746l0.746,0.747h0.746h0.745l0.748-0.747l0.745-0.746v-1.492h0.746h0.745l1.493,0.747l1.49,1.491
	h0.744h2.238l0.749,0.747l0.746,0.748h0.747l0.746-0.748h0.747v-0.747l0.745-0.746h0.748l0.747-0.747l1.487,0.747h0.751l0.745-0.747
	h0.746l1.492-0.747h0.746l0.745-0.746l0.748-0.747h0.745l0.749,0.747h2.234h0.748h0.747l0.746,0.746l1.492,0.747h0.746l0.745,0.747
	h0.749h0.744l0.745,1.491l1.493,0.748l2.238,0.745l1.49,0.747l1.491-0.747l0.746-0.745v-0.748v-0.747l-0.746-0.746l0.746-0.747
	l-0.746-0.747v-0.746l-0.745-1.491v-0.749h-0.746l-0.749-0.745l-0.745-0.746v-0.749v-0.745v-0.748v-2.238l-2.238-1.491h0.745v-0.747
	h-1.487v-3.733v-0.745l0.744-0.746l-0.744-0.749v-0.745v-0.748v-0.747l-0.751-1.491l-2.234,0.747l0.747,0.748v0.745v0.748h-0.747
	v0.745l-0.749,0.749h-0.744l-0.749,0.746l-0.744,0.745h-0.747h-0.747l-1.491-0.745l-0.745-0.746v-0.749h0.745l0.747-0.745
	l0.746-0.748v-0.745v-1.493l0.747-0.745v-0.748h0.745h0.748v-0.747h-0.748v-0.747v-0.748h1.493v-0.745v-0.746h-1.493v-1.492h-0.745
	h-0.747v-0.746v-0.745l-0.746-0.749h0.746v-0.745h-3.729l-0.747-0.747v-2.238v-0.749v-0.745v-0.747v-0.745l-2.984-2.24v0.747
	l-1.491-0.747v-0.749l0.746-3.73l-0.746-0.747l-0.745-0.747l-0.751-0.747h-0.744v-0.745l-0.745-0.749h-0.749h-0.744h-0.747
	l-0.746-0.745h-1.492l-0.746-0.747h-2.987l-1.487-0.747l-2.24,4.479v0.747v0.747l-0.745,1.492l-0.746,2.238l-0.745,1.493v1.494
	l-0.748,0.745v0.747l-1.49,2.985h-1.491h-0.748h-0.745l-4.477-0.747H86.24l-3.731,1.493l-2.983,0.747v-2.985h-0.748v-1.494v-0.747
	h-0.745l-0.746-0.745h1.491v-0.749v-0.745v-1.493v-1.49h0.748l1.491-0.749l-1.491-0.747v-1.491v-0.747h-0.748v0.747l-0.745-0.747
	l-0.746-2.24v-0.745h0.746h0.745v-0.747h0.748h0.746v-0.747h0.745h0.746l-0.746-0.747h-0.736l-0.746,0.747h-0.747l-0.746-0.747
	l-0.745,0.747v-2.985h-0.746h-0.75V94.558z"/>
<g id="Noord-Holland">
	<path id="path415" fill="#DBDBDB" stroke="#FFFFFF" stroke-width="0.8135" stroke-linejoin="bevel" stroke-miterlimit="10" d="
		M45.966-13.647L44.476-12.9l0,0l0,0l0,0l-0.746,0.747h-0.746v0.747l0,0h-0.747l0,0l-0.746-0.747l0,0V-12.9v-0.747v-0.745h0.746l0,0
		l0,0l0,0h0.747h0.746l2.238-0.749l0,0h1.493v0.749l0,0L45.966-13.647z"/>
	<path id="path325" fill="#DBDBDB" stroke="#FFFFFF" stroke-width="0.8135" stroke-linejoin="bevel" stroke-miterlimit="10" d="
		M49.697-12.153l-1.494,2.24v0.745v0.747v1.494L47.459-4.69v2.24v2.985l-1.493,4.479L45.221,9.49l-1.491,4.478v1.494h-0.746v1.489
		l-1.493,2.985v1.494l-1.49,4.478v0.745v0.747v0.747v0.747v2.238l-0.748,2.985v1.494V37.1l-0.745,2.987v1.492v0.745v1.494
		l-0.746,0.747v0.747l-0.745,5.223l-0.746,6.715l-0.748,3.731l-0.745,1.494l-0.746,1.491l-0.745,1.494l-0.748,2.24l1.492-0.749
		h0.746l1.492-0.745l0.746,0.745h-0.746v0.749H34.78l-0.746,0.747h1.491v0.745l-1.491-0.745H33.29v0.745l-1.493-0.745v1.491
		l0.745,1.492l-0.745,0.745v1.494l-0.746,1.493l-0.746,2.985l-0.745,2.24l-1.492,3.729l-2.984,5.972l5.221,2.238l2.238,0.747v-1.494
		l0.748,0.747l0.745-0.747h0.746h0.746l1.492,0.747l-0.746,1.492l-0.747,0.747v1.494h-0.746v0.745v0.749l-0.746,0.745l-0.745,0.747
		l-0.748,0.747v0.747v0.745v0.747v1.493l-0.745,0.745v0.749h-0.746v0.747v0.745v0.747h0.746l0.745,0.747h0.748l0.745-0.747
		l1.492,0.747h2.237h0.742h0.745L40,107.251l1.491-0.747h0.746v-0.745l0.747,0.745h0.746h0.746l0.745-0.745l0.746-0.747l2.237,0.747
		l-0.745,2.238l0.745,0.747l0.746,0.745l0.748-1.491h0.745h1.491l0.748-0.747v-0.747h0.746h0.745h0.746h0.745h0.748h0.746
		l0.745-0.745h0.746v-0.747h0.745l0.748-0.749h0.745v-0.745l1.492-0.747l0.747-0.747h0.746h0.745l0.746,0.747v-0.747h0.748h0.745
		v-0.747l0.746-0.745l0.745-0.747l-0.745-0.747v-0.747l0.745-0.745l1.494,0.745h0.745h0.746h0.745v-0.745l1.493-0.749v-0.745
		l1.491,0.745v-0.745v-0.747h0.745v-0.747h0.748h0.745v2.987l0.746-0.749l0.746,0.749h0.747l0.746-0.749h0.745l0.746,0.749h-0.746
		h-0.736v0.745h-0.746h-0.747v0.747h-0.746h-0.747v0.747l0.745,2.238l0.746,0.747v-0.747h0.747v0.747v1.492l1.491,0.749
		l-1.491,0.747h-0.747v1.492v1.491v0.745v0.749h-1.491l0.745,0.745h0.746v0.747v1.494h0.747v2.985l2.984-0.747l3.731-1.494h0.745
		l4.477,0.749h0.745h0.748h1.491l2.238-4.478v-1.494l0.745-1.491l0.746-2.238l0.746-1.494v-0.747v-0.747l2.239-4.477l1.49,0.745
		h2.984l-1.489-1.493v-0.745l0.745-0.747h-0.745h-0.747l-0.748-0.747h-0.747l-0.745-0.747h-0.746v-0.745l-0.746-0.747l-0.747,0.747
		H98.18h-0.746h-2.983l-0.746,0.745H92.96l-0.748,0.747h-0.745v-0.747h-0.746l-0.745-0.745l-0.748-0.747l-0.746-1.493h-0.745v-0.745
		h-1.491h-0.748l-0.746-1.493h-2.237h-0.746h-0.746l-1.491,0.747l-0.747-0.747v0.747h-0.746v-0.747h0.746v-0.745l-0.746-0.747
		h-0.747l-0.746,0.747h-0.748h-0.745v-0.747h0.745v-0.747v-0.747l-1.491-0.745h-0.745v0.745h-0.746l-0.748-0.745H71.33v-0.749h0.745
		h0.748l0.746-0.745l-2.238-1.493v-0.747l1.493,0.747l0.746,0.747h0.745l0.746-0.747v0.747l0.745,0.747l0.748-0.747v-0.747v-0.747
		h0.746l0.745-0.745v-1.494l0.746-0.747l0.747-0.745l0.746-0.749h0.745h0.746v-0.745l0.746-0.747v-0.749l1.492-1.492h-0.746h-0.747
		l-0.746-0.749v0.749l-1.49-0.749v-0.745v-0.747v-0.749l0.745-0.745v-0.745h-0.743l-0.746,0.745l-0.747-0.745l1.492-0.747h1.491
		v-0.749l-0.746-0.745v-0.745V64.71l0.746-0.747l0.746,0.747v-0.747l0.747-0.745l0.746-1.494h-0.746v-1.491h-0.747v-0.749
		l-0.746-0.745v-0.747L81.026,56.5v-0.745l-1.491-2.24V52.77l-0.747-0.749V50.53l-0.746-1.494V48.29l-0.745-0.745l0.745-0.749
		l-0.745-0.745v-0.747v-0.747v-0.747v-1.493v-0.745h0.745v-0.747h0.746l0.747-0.745h0.746h0.745v0.745l0.746,0.747v-0.747
		l0.746-0.745h0.747h0.746h0.745l0.746,0.745l0.748,0.747h0.745l0.746,0.745v0.749h1.49h0.748h0.745l0.746-0.749l1.493-1.492h0.746
		h1.491v-0.745l0.745-0.749h0.748v-0.745l1.491-0.747v-0.747l0.746-0.747v-1.494V34.11l0.747-1.492h0.746h0.746h0.745l0.747-0.747
		h0.748l-0.748-0.747h0.748l0.747-0.745l0.745-0.749l-0.745-0.745l-0.747-0.747v-0.743v-0.747v-0.745v-0.747v-0.747v-0.747h-0.748
		l-0.747-0.745l-1.489-0.749h-2.238h-0.745l-0.746-0.745h-1.493h-0.746l-0.745,1.493l-0.746,0.745v0.747l-0.748-0.747H91.47h-0.746
		h-0.745l-1.493-1.494l-0.745-0.745l-0.746-0.747l0.746-1.494h-0.746l-0.745-0.745h-0.75l1.492-11.195L85.501,5.01l-2.238-4.477
		v-0.747L82.516-0.96l-2.238-4.479h-0.746V-6.93l-0.747-0.749H78.04L77.294-6.93h-0.745l-0.748-0.749h-0.745L74.311-6.93h-1.49
		l-1.493,1.491v0.747l-1.491,2.238h-0.748l-1.49,0.747L66.853-0.96L63.87,0.533l-0.746-0.747l-2.238-1.491h-0.745l-2.238-1.492
		l-0.745-0.747L56.413-4.69l-0.748-1.494v-1.493v-1.492l0.748-1.493v-0.745h-0.748v0.745H54.92h-0.746v-0.745v-0.747h-1.491h-1.492
		h-0.746H49.697z M56.411-11.406v-0.747h-0.748L56.411-11.406z M79.534-6.928l0.746,0.745v-1.493h-0.746V-6.928z M72.822,84.113
		v0.749h0.746L72.822,84.113z M85.501,67.696v0.747v0.745l-0.746,1.494h0.746l0.748-0.747h0.745l0.746-0.747h0.745v-0.747
		l-1.491,0.745l-0.745-0.745L85.501,67.696z M105.643,93.814v0.747h0.747L105.643,93.814z"/>
	<path id="path417" fill="#DBDBDB" stroke="#FFFFFF" stroke-width="0.8135" stroke-linejoin="bevel" stroke-miterlimit="10" d="
		M62.378-24.84l-1.491,1.492l-0.746,0.747h-0.748h-0.745h-0.748l-2.238,2.987v0.747l0,0v0.745h-0.745h-0.746l-0.745-0.745
		l-1.495-0.747h-0.745l0.745,0.747l0.748,0.745l0,0l0.746,0.749h0.745H52.68l0,0v0.745l0,0l0,0h-1.493h-0.746h0.746l-0.746,0.747
		h-0.745l-0.748,0.745h-0.746v-0.745v-1.491l-0.745-2.987v-1.49v-0.75l0.745-2.238v-0.747l0,0l0.746-2.24l0.748-2.238l0.745-2.238
		l0.746-0.747l1.493-2.24l1.491-2.985l2.238-2.24l0,0l0,0v0.749v0.745l0.746-0.745l0,0l0,0l0.745-0.749l0,0l0.746-0.745h0.745v0.745
		v-0.745l0,0h-0.745v-0.747l-0.746,0.747l0,0l-1.491,0.745l0,0l2.238-4.479l0.745-0.745l1.493-0.747v-0.745h0.745h0.746l0,0
		l0.747,0.745l0.746,0.747v0.745v0.749h0.745h-0.745l0,0v0.745l0.745,0.747l0,0l0.746,0.747l1.493,2.24v0.745l0,0l0,0l0,0
		l-0.745,0.747v4.478v2.24v0.745l-0.748,1.494h-0.746l-0.745,0.747l0,0l0,0v1.493l-1.49,1.492V-24.84z"/>
	<path id="path433" fill="#DBDBDB" stroke="#FFFFFF" stroke-width="0.8135" stroke-linejoin="bevel" stroke-miterlimit="10" d="
		M92.214-17.376L92.214-17.376L81.772-8.424l-0.746,0.745h-0.745v-0.745h1.491L92.214-17.376z"/>
</g>
<path id="Limburg" fill="#DBDBDB" stroke="#FFFFFF" stroke-width="0.8135" stroke-linejoin="bevel" stroke-miterlimit="10" d="
	M161.591,178.885l-0.747,0.746l0.747,0.749v0.745v0.748h-0.747l0.747,0.749h0.746v0.748v0.747l0.747,1.487v1.49l0.746,0.752h1.49
	l1.493,0.747h1.489l0.747,0.746h0.747l0.744,2.238v1.49v0.75h0.749v1.488v0.75v0.745v2.24l0.749,0.75v0.745l2.236,0.748l0.746,0.751
	l0.745,0.745l0.746,0.75v0.749l0.747,0.748v2.238v0.745l0.745,0.746l0.748,1.492v0.748v0.751v0.744v0.749l0.749,0.75h-0.749h-0.748
	v0.749l-1.49-1.493l-0.746-0.749h-0.747v-0.745l-1.489,0.745l-1.49,0.749l-2.238,0.75l-1.493,0.745h-1.489h-1.493l-1.49-0.745
	l-2.238-0.75l-2.984-0.749l0.746,6.719l0.749,2.238v1.485l0.745,1.491l1.493,6.715v0.749l2.982,5.225l1.494,2.983l1.487,2.238
	l-1.487,0.75l-2.238,2.238l-1.493,1.491h-0.745l-0.749,0.745h-0.746l-2.238,0.749l-5.968,1.489l-0.745,0.749h-0.749l-1.489,0.748
	l-3.731,0.751h-0.745l-2.986,1.487l-2.234,2.236l-0.749,1.491l-1.489,2.985l-0.749,3.733v2.983l-2.238,0.75h-0.745l-2.237,0.749
	l1.491,0.748l5.968,2.234l0.749,0.753v0.744l0.744,1.494l0.745-0.751l0.749,0.751h0.746h0.745h1.493h0.745h0.746h1.492l0.744-0.751
	h0.747l0.748,0.751h1.49l0.748,0.744v0.749h0.745l-0.745,0.746h-0.748v0.747h0.748v0.752v0.745v0.749h0.745v-0.762h0.749h0.744
	v-0.747h0.747h0.747v-0.75l1.491-0.747v0.747h0.745v1.491l2.238,1.491l-0.747,0.745l-0.745,0.75v0.747l-1.491,0.747h-0.747v0.754
	l-0.746,0.745l-0.747,0.746l0.747,0.749h1.491l0.745,0.744v0.751l-0.745,0.748v0.749h-0.745l-0.748-0.749h-0.747h-0.747v0.749v0.748
	l0.747,0.747v0.749h-0.747v0.746l0.747,1.492h-0.747v0.746h-0.744l-1.493-0.746l-0.745,2.237v1.488l-0.749,0.75v0.745h0.749
	l0.745,0.751v0.748l-0.745,1.489v0.749v0.749v0.748l-0.749,0.745l-0.744,0.75l-0.749,1.488h-0.746l-0.745,1.489l-0.747,1.493v0.749
	h0.747h0.745l0.746-0.749h0.749l0.744,0.749v0.748l-1.489,0.745v0.751v0.744l-1.491,1.494v0.744l-0.747,0.751l0.747,0.748
	l-0.747,0.745h-0.745h-0.748h-0.745l-0.748,0.748v0.751v0.745l-1.49,1.491v0.75h-0.748l-0.747,0.745h-0.745v0.747h-0.746h-0.749
	l0.749,0.752l-0.749,0.745v0.748v0.751v0.744v0.751v0.747v0.746h0.749v0.753v0.746h0.746v0.749l0.745,0.744h0.747h0.748v0.749h1.49
	l0.748,0.75v0.745l-0.748,0.751l0.748,2.236v1.489l-1.493,2.242v0.744h0.748h0.747l0.745-0.744h0.746l0.749-0.751v0.751l0.745,0.744
	h0.744l0.749-0.744v-0.751l0.746-0.748l1.492-2.236h1.489v1.487l0.749,1.493l0.744-0.75l1.492,2.238h0.746l0.747-0.747l0.745,0.747
	l0.746-0.747l0.749-0.75v0.75v1.488l0.744-0.747l0.749-0.748v-0.747h0.745h0.746l1.492-0.749v0.749v1.489l1.489,0.749v-0.749h0.748
	h0.745v0.749l1.493-0.749l0.745-0.746h0.747h0.746h0.749h0.745l0.746,0.746l1.492,0.749h0.744v-0.749h1.493h0.745v-1.489
	l0.747-1.491l-2.238-1.49h-0.747l-0.744-0.748v-0.745h-0.745l-0.749-0.75v-0.749v-0.747l0.749-0.75l0.745,0.75l1.489,0.747
	l0.748-1.489l0.745-0.749v-0.747h0.747l-0.747-0.75v-0.747l-0.745-0.748v-0.747v-0.748l0.745-0.749h1.493l0.745-0.748h0.747v-0.747
	h0.746v0.747l1.492,0.748v-1.489v-0.749h0.746v-0.744l0.745-0.753v-1.487l-0.745-0.751v0.751l-0.746-1.488v-0.752v-0.749
	l0.746-0.744v-0.751l0.745-0.745v-0.75l-0.745-0.749h-0.746h-0.747h-1.491v-0.744v-0.753l-0.747,0.753l-0.745-0.753l-2.238-0.746
	v-1.492v-0.746l-1.493-0.745l0.747-0.75h0.746v-0.745l0.747-2.99h-0.747h-2.982h-0.747l-0.746,0.748h-0.745l-0.749-0.748v-0.745
	h-0.746l-1.492,0.745h-0.746l-0.747,0.748h-0.745l-0.748,0.751h-0.745l-0.744-0.751l1.487-1.487v-2.238h-0.745l-0.746-0.751v-0.744
	h-0.747v-0.749h-0.746v-0.75v-0.747v-0.75v-1.488l-0.745-0.75l-0.749-1.488h0.749h1.489h0.749v-0.75l1.487-0.745l0.751-0.75v0.75
	l1.487,2.238l0.747,1.487v0.749l0.748-0.749h0.745v0.749h0.747v-0.749l0.746-0.744v-0.749l0.745-0.748v-0.751v-0.745l0.748-0.75
	v-0.745l0.749-0.748v-0.751l0.745-0.748l1.489-0.745l0.749-0.75l1.489-0.749h0.749l0.744-0.745l0.747-0.75v-0.747l0.746-0.75h0.745
	h0.749l0.746-0.747v-0.748v-0.745l0.747-0.752h0.745h0.746l0.747-0.747h0.744v-0.749h1.494l0.744-0.746h0.749h1.489l-0.744-0.749
	h0.744l0.745-0.744l-2.983-2.24h-0.744l4.477-2.238l-1.494-1.492l-4.477,2.238l-0.744,0.747l-0.747,0.75h-0.766h-0.744h-1.494v-0.75
	l-0.744-0.747v-5.225l-0.747-0.745l0.747-0.748h1.491l-1.491-2.985l1.491-0.75l0.747-1.486l2.982-2.992v-0.745l0.747-0.748
	l1.491-2.242l0.745-1.487v-0.747l0.748-0.751v-0.746v-0.747l0.745-0.748v-0.749h0.745h0.75h0.745v-0.747l3.729-3.733l-0.744-2.238
	l-0.747-1.489v-0.747l0.747-0.75l0.744-0.747h-2.236v-0.746l0.747-4.479v-2.238h0.745l-0.745-1.491l0.745-0.747v-2.238l-0.745-1.489
	l-0.747-1.491l0.747-1.492l-0.747-0.746v-1.49v-0.746l-0.746-1.49l-1.49-0.748l-1.493-0.749l-1.489-4.477l-1.492-0.746l-0.746-0.747
	l-0.749-0.75l-0.745-1.49v-0.748h-0.746l-2.24-1.466v-1.487v-1.489h0.745v-0.753l0.744-2.238v-0.744l0.749-0.749v-0.747l-1.49-0.748
	h-0.746h-0.747v-0.751h-0.748h-0.745l-3.731-1.487l-0.745-0.751v-0.744v-0.753l0.745-0.746l-0.745-0.747v-0.747v-1.491h0.745h0.747
	v-0.746h-0.747v-0.745v-0.754h-0.745l-2.238-1.488l-0.746-0.75h-1.492h-0.744h-2.238v-0.745l-0.749,0.745h-0.746l-0.747-0.745
	v-0.749h-0.745l-0.748-0.75v-0.745l-0.745-0.748v-0.747l-0.745-0.747l-0.748-0.746h-0.749h-1.483V178.885L161.591,178.885z"/>
<g id="Flevoland">
	<path id="path41" fill="#DBDBDB" stroke="#FFFFFF" stroke-width="0.8135" stroke-linejoin="bevel" stroke-miterlimit="10" d="
		M137.721,45.308l-0.749,0.747l-5.221,1.493h-0.747l-0.746,0.745l-5.97,5.223v0.747h-0.745h-2.983h-0.748v0.747l-0.747,2.238v-0.747
		l-0.745,1.493v0.747v0.745v0.749v0.745l-1.491,0.747h-0.746l-0.747,0.747l-0.749,1.491h-0.744h-0.745v0.747l-12.683,8.21
		l-2.238,1.492v0.747H97.43v0.747h-0.745h-0.443l-4.778,2.985l-0.746,0.745l-2.983,2.24H86.99v0.747l1.49,1.491v1.494v2.24
		l-0.745,0.745h0.745l0.746,1.493h-0.74l0.746,0.745l0.748-0.745h0.745l2.984-0.749h0.745h0.746l0.745,0.749h0.748h0.745h1.492
		l2.239,0.745l1.49,1.493l2.236,0.747l1.493,1.491l6.715,5.972l0.745,1.492h0.744l1.493,0.747l1.49-0.747l3.731-1.492h0.745h1.493
		l0.745-0.747l2.237-0.747h0.749l0.747-2.985l0.744-0.747v-2.238h0.747v-1.494v-0.747v-0.745v-0.749h-0.747v-0.747l-0.744-1.492
		l0.744-0.747l2.238-2.24l1.492,0.749l2.238-0.749h0.746l0.745-0.745h-0.745l0.745-0.747l0.746-0.747l0.749-0.747l2.238-2.238
		l5.966-2.985h0.749h0.744l0.747,0.745h0.745l2.984-2.238l0.749-1.492l1.489-1.493l0.749-1.492l0.744-0.747l0.747-1.492l2.236-4.478
		l0.748-1.494v-0.747v-1.493v-3.73l-0.748-1.493l-3.728-3.731v-0.749h-0.749h-3.729h-0.747l-2.982-0.745l-6.715-2.24h-0.749
		l-0.744-1.488H137.721z M96.25,75.904l1.188-0.747l-1.493,0.747H96.25z"/>
	<path id="path151" fill="#DBDBDB" stroke="#FFFFFF" stroke-width="0.8135" stroke-linejoin="bevel" stroke-miterlimit="10" d="
		M145.925,7.248l0.749,1.493l-1.494-0.747v0.747h-0.744l-3.731,0.745h-0.745v0.749l-2.238,3.729l-3.733,5.97v0.747l-0.745,2.24
		v7.463v3.731v1.494v0.745V37.1h0.745l0.747,0.747l0.748,0.747l1.489,2.238l2.238,2.985l0.749,0.747h0.745h7.459h0.745h2.238h5.97
		h0.744l5.97-1.492l0.749,0.745l0.745,0.747l1.493-0.747h0.745l1.489-0.745v-0.749l2.238-0.745h0.749l2.236-1.492l0.746-0.749
		l-0.746-1.491h-1.492l-0.744-0.747l-0.749-0.747l-1.489-0.745h-0.749l-1.489-0.749v0.749h-0.745v-0.749v-0.745l0.745-0.747
		l0.744-0.747l1.494-0.747v-0.747v-0.745l-0.749-0.749v-0.745l-0.747-0.747h-0.746v-0.747l-1.492-2.985l-0.746-2.24l-1.49-1.491
		h-0.746l-0.747-0.747l-0.746-1.492l-2.236-0.747l-0.749-0.749h-1.489h-1.492v-0.745l-0.746-0.745l-0.747-0.749l-0.746-1.492
		l-0.745,0.745v-0.745l-0.749-1.493l-2.984-3.732h-0.745L145.925,7.248z"/>
	<path id="path261" fill="#DBDBDB" stroke="#FFFFFF" stroke-width="0.8135" stroke-linejoin="bevel" stroke-miterlimit="10" d="
		M147.418,46.053h0.745h0.745l0,0l0.748,0.745l-0.748,0.749l0,0h-0.745l0,0l0,0v0.745l0,0l0,0l-0.745-0.745l0,0v-0.749h-0.748
		v-0.745H147.418L147.418,46.053z"/>
	<path id="path861" fill="#DBDBDB" stroke="#FFFFFF" stroke-width="0.8135" stroke-linejoin="bevel" stroke-miterlimit="10" d="
		M103.406,31.874L103.406,31.874h1.49l5.223,2.24l0.747,0.745l3.728,3.733l1.493,2.238v0.747l3.731,5.972l1.49,3.73v0.747h-0.745
		l-0.748,0.749l-1.49,0.745l-0.748,2.985l-0.745,1.494h0.745l0,0l-0.745,1.491v-1.491l0,0l0.745-1.494l0.748-2.985l0.745-0.745
		l1.493-0.749h0.745v-0.747l-1.49-3.73l-5.225-8.955l-3.728-3.733l-0.747-0.745l-4.477-2.24l-0.746,1.493l0,0h-0.745h-0.747h-0.748
		h0.748l0.747-0.747l0.745-0.747h-0.745l0,0L103.406,31.874L103.406,31.874z"/>
</g>
<g id="Friesland">
	<path id="path651" fill="#DBDBDB" stroke="#FFFFFF" stroke-width="0.8135" stroke-linejoin="bevel" stroke-miterlimit="10" d="
		M92.214-17.376l2.984-2.987l0.745-0.745l8.208-7.463h0.745l2.238-0.747h0.746l0,0l0,0v-0.747v0.747l0.747,0.747l-0.747-0.747
		h-0.746l0,0l-1.492,0.747h-1.491l-6.713,6.716l-0.746,0.745l0,0h-0.748L95.2-20.365L92.214-17.376L92.214-17.376z"/>
	<path id="path649" fill="#DBDBDB" stroke="#FFFFFF" stroke-width="0.8135" stroke-linejoin="bevel" stroke-miterlimit="10" d="
		M111.61-27.826v-0.745l-0.744-1.494l0,0h0.744v0.747h0.745h0.751v0.747v0.745h0.746v0.749l0,0v0.745h-0.746l-0.751-0.745
		L111.61-27.826z"/>
	<path id="path55" fill="#DBDBDB" stroke="#FFFFFF" stroke-width="0.8135" stroke-linejoin="bevel" stroke-miterlimit="10" d="
		M189.191-84.537l-3.731,1.491h-0.744l-1.494-0.747h-2.236v0.747h-0.746h-0.747l-0.746-0.747l-2.987,0.747h-1.487h-0.747
		l-0.749,0.747l-2.982,0.747h-0.747H168.3l-2.983,1.491h-1.491h-0.747h-0.745h-0.748v-0.747l-0.747-0.745v1.491l-1.491,0.747
		l-1.489,0.747l-0.745,0.745l-1.493,0.749l-0.745,0.745l-1.493,0.747h-1.49l-2.238,1.493l-2.984,1.492l-1.491,0.749l-3.732,2.238
		h-2.237l-0.741,0.743l-1.49,0.745h-0.748l-0.745,0.747l-1.493,0.747l-1.49,0.747l-0.748,0.745l-1.488,1.493l-0.75,1.494
		l-0.745,0.747v0.745h-0.744v0.747l-1.494,0.747l-0.744,0.747h-0.749l-1.489,1.494L122.8-56.18h-0.747l-0.746,0.745l-0.745,1.494
		h-0.746l-0.749,0.747l-0.745,1.493l-0.748,2.238l-0.745,0.747v0.745h0.745l-0.745,0.749l-0.746,0.745l-0.747,0.747v0.745h0.747
		v1.493L115.335-42v2.24v1.491v0.749l-0.749,0.745v0.747l-1.487,0.745h-0.751l0.751,0.749l-0.751,0.745v0.747l-0.744,0.747h0.744
		l0.751,0.747l0.745,1.494v0.745v0.747v0.745l0.746,1.493h-0.746l0.746,0.747h-0.746v-0.747h-1.492v0.741v0.747h0.749h0.745v1.492
		v0.747l0.744-0.747v0.747h-0.744v0.749h0.744l0.749,0.745v0.745v0.749v0.747l-0.749,0.745v1.493l0.749,2.24v1.492l0.746,0.747
		v0.256l1.492-1.004l-1.492,1.493v-0.489l-0.746,0.489v0.745v1.493h-0.749l-0.744,0.747l0.744,0.745l0.749,1.493v0.747v1.494v0.747
		L114.59-2.45h-0.744h-0.745l-1.493,1.492l-0.745,0.747l-0.749,0.747l0.749,0.747v0.745v0.749h1.489V3.52h0.749l1.489,1.494
		l1.492,1.491h0.746h0.745h0.748h1.49V5.76l2.238,0.745h1.491l0.747,0.747l2.982,1.493h1.491V9.49h1.492L131,8.745h0.747V7.998
		l0.745-0.747V6.505l1.491-0.745l1.493,0.745l0.745-0.745l1.491-0.747h0.753l0.744,0.747v1.492h0.749h0.746h1.492h0.746h0.745v0.747
		h0.747l0.748-0.747v0.747l1.49,0.747l-0.747-1.493l2.238,0.747h0.745l2.984,3.731l0.749,1.494v0.745l0.744-0.745l1.494-1.494h0.744
		v0.747h0.747h0.747v0.747h0.746h0.745l0.746,0.745h0.749h0.745h0.746l0.747-0.745h0.747v-0.752h0.746l0.749-0.745v-0.747
		l0.744-0.745V9.486l0.745-0.745h1.493V7.994l1.49,0.747V7.994l1.491-0.747v1.493l0.747,1.494l0.748,0.745h0.745v0.747l0.746-0.747
		l2.236-0.745v1.492l1.494-0.747l0.744-0.745h0.747V9.486l-0.747-1.492h0.747h2.238l0.747-0.747l0.744-0.747l2.238-1.494
		l2.238-1.491l1.491-1.494l2.985-1.491l0.745-0.747l0.744-0.747l2.238-2.985l1.493-0.747V-5.44v-0.747l1.49-0.745l2.238,0.745h2.238
		l2.982,2.985l2.987-2.24l2.238-2.24l0.744-0.745l0.745-0.747v-0.747l2.238-3.731l-0.745-0.745l-0.748-1.493l-0.745-1.494
		l-2.984-4.476l-1.492-2.24v-0.749v-2.236l0.749-2.24l-1.493-0.747h-2.238l-2.238-1.492l0.75-1.493l-2.238-0.747v-0.745
		l-0.746-0.749l-1.492-0.745l-0.746-0.747h-0.749h-1.489h-1.49h-1.493h-0.745l-0.746-1.494l-0.747-0.747l-0.748-0.747v-2.985v-0.747
		V-45v-1.492l0.748-0.747l0.747-1.491v-0.747l0.746-0.747h0.745l0.749-0.747l0.744-1.494v-0.745v-0.747v-1.494h-0.744h-0.749v-0.745
		l0.749-0.747l0.744-0.749l0.745-0.745v-0.747v-0.747l0.749-0.747v-0.745h0.746l0.747-0.749h-0.747v-0.745v-0.747v-0.745
		l0.747-0.749h0.747l0.746-0.745v-0.747l0.745-0.747h0.748v-0.747h-0.748v-0.745v-4.479h-0.745v-0.747h-1.493h-0.745l-0.746,0.747
		h-0.747h-0.745l0.745,0.745v0.749h-0.745V-72.6l-0.746-0.745v-0.747h-0.751l0.751-0.745h-0.751l-0.745-0.749v0.749l-0.744,1.492
		v-0.747v-0.745l-1.493-0.749l-0.745,0.749v0.745l1.491,1.491v0.749h-0.746V-72.6l-0.745,0.749V-72.6l-0.749-0.745v-0.747v-0.745
		v-1.493l-0.748-0.745v-0.749l0.748-0.745h-0.748v-0.747v-0.747l-0.745-0.747l0.745-1.491v-0.747v-0.747L189.191-84.537z
		 M193.668-74.836v0.745l0.745,0.747L193.668-74.836z M111.61-32.301l-2.237,2.238h-0.745h-0.747l0.747,0.747h0.745l0.748-0.747
		L111.61-32.301z M116.832-47.225v-0.749l-0.745,0.749H116.832z M189.191-70.362h0.745v0.747L189.191-70.362z M187.698-69.613h0.747
		l-0.747,0.747V-69.613z M114.594-24.84h0.747l-0.747,0.747V-24.84z"/>
	<path id="path65" fill="#DBDBDB" stroke="#FFFFFF" stroke-width="0.8135" stroke-linejoin="bevel" stroke-miterlimit="10" d="
		M178.001-91.256v0.747l-0.745,0.747h-0.748l0,0v-0.747v-0.747l0,0l0.748-0.747l0,0h0.745V-91.256z"/>
	<path id="path71" fill="#DBDBDB" stroke="#FFFFFF" stroke-width="0.8135" stroke-linejoin="bevel" stroke-miterlimit="10" d="
		M146.674-92.001h2.234h2.238l9.697-0.747l4.477-0.745h2.238l1.489,0.745h0.749v0.747l0,0v0.747h-0.749h-2.236h-1.491h-2.238
		l-1.491,0.747l0,0l-1.492,0.747h-0.744l0,0l0,0l-2.985,0.747l-2.984,0.745h-1.49h-0.748h-0.745l-2.238-0.745h-0.745h-1.493h-0.745
		v0.745l-0.748,0.747l-0.747,0.747h-1.491l-0.747,0.747h-0.744h-0.747h0.747l-0.747,0.745l-0.748-0.745h-1.49l-0.745-0.747
		l-1.491-0.747l-0.746-1.492v-0.747l0.746-0.747l0.745-1.492l0.746-0.747l1.494-1.494h0.744h0.749l0.746,0.747h0.745l0.747,0.745
		h-0.747l0,0l-0.745-0.745l0,0h-0.746h-1.493l-0.745,0.745h1.489h0.749l0,0l2.982,0.747H146.674z"/>
	<path id="path99" fill="#DBDBDB" stroke="#FFFFFF" stroke-width="0.8135" stroke-linejoin="bevel" stroke-miterlimit="10" d="
		M205.601-100.211v1.494h-0.745h-0.746h-0.747h-0.749l-1.487,0.745l0,0l-2.238,0.749l-0.747,0.745v0.747l-1.491,0.745h-0.747h-1.491
		l0,0h-0.745l0,0l-2.236,0.749h-0.748l0,0h-2.236h-0.747l-0.746,1.492v0.747h-0.747v0.747l0,0h-0.745l0,0h-0.744v0.747l0,0
		l-0.747-1.492l0,0v-0.75h0.747l0.744-0.745l-0.744-0.747v-0.747v-1.491l0.744-0.745l1.492-0.749v-0.745l0,0h-0.747h-0.745h-0.744
		l0,0h-0.747h0.747l0,0l0.744-0.747l1.492,0.747h2.238l7.459-0.747h2.238l4.475-0.747l1.489-0.747L205.601-100.211z"/>
	<path id="path105" fill="#DBDBDB" stroke="#FFFFFF" stroke-width="0.8135" stroke-linejoin="bevel" stroke-miterlimit="10" d="
		M99.676-57.675L99.676-57.675L99.676-57.675l-0.747-0.745h0.747l0,0h1.492h0.745l0,0h-0.745v0.745h-0.746l0,0H99.676v-0.745l0,0
		l0,0l0,0V-57.675z"/>
	<path id="path107" fill="#DBDBDB" stroke="#FFFFFF" stroke-width="0.8135" stroke-linejoin="bevel" stroke-miterlimit="10" d="
		M117.577-83.046h-2.983l-1.489,0.747h-0.749l-0.745,0.747l0,0l-1.491,1.491l-0.746,0.747l0,0h-0.747h-0.747v0.747h-0.748
		l-0.745-0.747v0.747h-0.747l-0.746,0.745l0,0l0,0h-0.745v0.749l0,0l-0.747-0.749h-0.75l0,0h-0.745h-0.744l0,0l-0.747,0.749
		l-0.746,0.745l-0.748-0.745l-0.745,0.745H97.43l-0.745,0.747v0.749l0,0l0,0h-0.748l-1.49,0.745h0.745l-0.745,0.747h-0.746h-1.492
		l-0.745-1.492h-0.746l0,0v-0.75l0.746-0.747l1.493-2.238l1.491-2.24l0,0l1.49-0.745l1.493-0.749l2.984-0.745l4.475-0.747h1.491
		l4.477-1.493l3.729-1.492l8.205-2.987h2.237l2.238-0.745l0.749,0.745h0.745l0.744,0.749l0,0v1.492v0.747l0,0v-0.747v-0.747
		l-0.744-0.745l0,0v0.745l-0.745,0.747l0,0l-0.749,0.747h-1.489h-0.749l-1.489,0.747l0,0l0,0l-0.748-0.747l0,0l0,0l0,0v0.747h0.748
		l-0.748,0.745h-0.745l0,0h-0.747v-0.745h-0.744l0,0l0.744,0.745v0.749h-0.744h-0.747l0,0l-0.749-0.749l0,0l0,0l0.749,0.749
		l0.747,0.745h0.744h0.747l0,0l-0.747,0.747h-1.491h-1.489L117.577-83.046L117.577-83.046z"/>
	<path id="path109" fill="#DBDBDB" stroke="#FFFFFF" stroke-width="0.8135" stroke-linejoin="bevel" stroke-miterlimit="10" d="
		M91.47-65.883L91.47-65.883l-0.746,0.745l-0.745,0.749h-0.748h-0.746h-0.745l0,0v0.745l0,0h-0.746l0,0v-0.745l0,0h0.746h-0.746
		l0.746-0.749l0.745-0.745h1.493H91.47L91.47-65.883z"/>
	<path id="path111" fill="#DBDBDB" stroke="#FFFFFF" stroke-width="0.8135" stroke-linejoin="bevel" stroke-miterlimit="10" d="
		M81.772-65.138v0.749l-0.746,0.745l-1.491,0.747l-4.476,1.493l-1.49,0.745v0.747v1.493h0.745v-0.747l0,0l0,0l0,0h0.746
		l-0.746,0.747l-0.745,1.494l0,0l0,0l-2.238,1.491l-0.746,0.749h-0.745v0.745l-0.748,0.747l-1.491,0.745l0,0l0,0h-0.746h-1.493
		h-2.238l-0.747,0.749l0,0v0.745h0.747h-0.747h-0.746l0,0v-1.494v-0.745v-0.747l4.477-2.238l2.237-2.24l1.493-0.747l1.491-1.494
		l0.745-0.745l2.984-2.24l1.493-0.745l0.746-0.749l0,0l2.237-0.745l1.492-0.747l1.49-0.747h0.747l2.238,0.747v0.747l-0.745,0.745
		l0,0l0,0h-0.746h-0.746H81.772z"/>
	<path id="path869" fill="#DBDBDB" stroke="#FFFFFF" stroke-width="0.8135" stroke-linejoin="bevel" stroke-miterlimit="10" d="
		M205.601-100.211h1.491l0,0v0.747l0,0l-1.491,0.747V-100.211z"/>
</g>
<g id="Groningen">
	<path id="path17" fill="#DBDBDB" stroke="#FFFFFF" stroke-width="0.8135" stroke-linejoin="bevel" stroke-miterlimit="10" d="
		M243.646-94.239l-1.492,0.747l-5.968,0.745l-0.745,0.747l-2.237,0.747h-0.749l-0.747,0.747h-1.487l-1.493,1.493h-0.745h-0.748
		h-0.747l-1.491,0.745l-1.49,0.747l-0.748-0.747l-0.747,0.747h-3.729l-2.238,0.747l-2.983,0.747h-1.491l-1.491,0.745h-1.49
		l-2.238,0.749l-2.238,0.745l-0.744,0.747v0.747l-1.493,0.747l-0.745-0.747l-0.749-0.747l-3.729-2.24h-0.747l-2.986,1.494v-0.745
		h-0.745v0.745h-0.741v-0.745l-0.748,0.745l0.748,0.747h0.745l0.745,0.747h0.75l0.745,0.747h0.747v0.745h-0.747h-0.745h-0.75v-0.749
		l-1.488-0.749v-0.745h-1.491l-0.747,1.494h0.747l0.745,0.745h0.748v0.747l-0.748,0.747l-0.745-0.747v0.747l0.745,0.747h0.748h0.745
		h0.745h0.75h0.745v0.745h-1.491h-0.745v0.749h0.745h0.748h0.745l0.744-0.749v0.749v0.745h-0.744l0.744,0.747l0.749-0.747h0.747
		v0.747l-0.747,0.749h-1.489v0.745l0.744,0.747l0.747-0.747h0.746h0.745h0.749l0.746,0.747h0.747v4.478v0.745h0.745v0.749h-0.745
		l-0.747,0.745v0.747l-0.746,0.745h-0.749l-0.745,0.749v0.745v0.747v0.747h0.745l-0.745,0.747h-0.746v0.745l-0.747,0.749v0.745
		v0.747l-0.744,0.745l-0.747,0.749l-0.75,0.747v0.745h0.75h0.747v1.494v0.747v0.747l-0.747,1.492l-0.75,0.747h-0.745l-0.745,0.747
		v0.747l-0.746,1.494l-0.747,0.745v1.494v1.491v0.747v2.987l0.747,0.745l0.746,0.747l0.745,1.494h0.745h1.493h1.491h1.491h0.745
		l0.749,0.747l1.489,0.745l0.748,0.749v0.745l2.238,0.747l2.234,0.747h0.749l0.745-2.987h0.748v-2.236v-0.749l1.49-3.731v-0.747
		l0.748-0.747l0.747-1.491l0.745-0.747v-0.747l0.746-0.745l1.491-0.749l1.492-0.745v-0.747l0.746-0.747l1.492-0.747h1.489h0.745
		l0.748,0.747l0.747-0.747l0.745,0.747h1.493l0.744,2.238l0.747,0.749l0.749-0.749l0.744,2.24v0.747l0.749,0.747l1.489-0.747v0.747
		v0.745l0.745,0.747v0.747h1.493v0.747l0.745,0.745l0.748,0.749l0.745,0.745v0.747h0.747l-0.747,0.749l0.747,0.745v0.747
		l3.733-1.492h0.744l1.49-0.749h2.238h0.748h0.745l0.747,0.749h0.746v0.745l2.983,2.24l0.747,1.492l2.984,2.238v0.749l2.238,2.236
		l2.236,2.24l3.733,3.733l0.745,0.745l1.491,1.494l1.491,1.491l0.747,0.749v0.745l0.747,0.747l0.744,0.747l0.747,1.492l0.747,1.493
		h0.744v0.747h0.749l1.489,2.238l0.749,1.494l0.746,0.747l0.747,0.745h1.491v1.494l-0.746,0.747l-1.492,4.479v0.747h2.238v0.745
		h0.745l1.491,2.24l0.747,0.747l0.746-0.747v0.747h-0.746v1.492h2.238l-0.747-1.492V4.276l1.49-2.24l4.476-7.463l2.983-5.223
		l1.493-5.97l0.745-3.733l0.748-0.745v-0.745l-1.491-6.717v-3.731v-0.747v-5.223l-2.238-1.492v-1.493v-0.747v-0.745l0.745-0.749
		v-1.492v-0.747l0.747-2.24h0.748l0.745-0.745h1.493l-1.493-0.747l-0.745-0.745l0.745-0.749v-0.745v-2.985l-0.745-2.24v-0.749
		h-0.748l-2.238-0.745h-0.745v-0.747h-0.747h-0.744H283.2h-0.745v-0.745h-0.744h-0.749h-1.489l-0.749-0.749h-0.744l-0.747-0.745
		l-0.747-0.747v-0.747v-1.492l0.747-0.749l-0.747-1.491v-0.745h0.747l0.747-1.493v-0.752l-1.492,0.747l-0.746,0.745h-2.238h-0.745
		h-0.747h-0.746l-1.491-0.745v-0.747h-0.747h-0.749l-1.489-0.747l-1.489-0.747v0.747l-1.492-0.747l-1.491-0.745h-0.747V-72.6h0.747
		l-0.747-0.745l-1.491-1.492h-0.747l-0.746-0.749v-0.747v-1.494v-1.491l-0.745-0.747v-0.747v-0.745v-1.494l-0.746-1.491h-0.749
		v-2.24l0.749-2.238v-0.749l-2.238-2.238l-1.492-0.747l-0.744,1.494l0.744,0.747h-0.744h-0.749h-0.748v-0.745l0.748,0.747v-0.747
		l0.749-1.493h-0.749l-1.489-0.745l-1.494,1.491l-0.744-0.747l-1.493-0.745h-2.236L243.646-94.239z M262.297-72.6l0.744,0.749V-72.6
		H262.297z M289.151-57.675v-1.492l-0.749,0.747L289.151-57.675z"/>
	<path id="path871" fill="#DBDBDB" stroke="#FFFFFF" stroke-width="0.8135" stroke-linejoin="bevel" stroke-miterlimit="10" d="
		M219.029-106.925v0.747l0,0l0.745,0.745l0.749,0.749l0.746,0.745l-0.746-0.745h-0.749h-1.489h-0.745l0,0v0.745v0.747h0.745l0,0
		l-0.745,1.493l-0.749-0.749l-0.744-2.236l-0.749-0.749v-0.747l0.749-1.493h0.744h0.749h0.745L219.029-106.925L219.029-106.925
		L219.029-106.925z"/>
	<path id="path873" fill="#DBDBDB" stroke="#FFFFFF" stroke-width="0.8135" stroke-linejoin="bevel" stroke-miterlimit="10" d="
		M226.489-106.18h1.493h1.488l1.491,0.745v0.749v-0.747h-1.491h-1.488h-0.748l0,0h-0.747l-0.747,0.749l0,0v-0.749L226.489-106.18
		L226.489-106.18z"/>
	<path id="path887" fill="#DBDBDB" stroke="#FFFFFF" stroke-width="0.8135" stroke-linejoin="bevel" stroke-miterlimit="10" d="
		M189.937-78.57l0.749,0.745v-0.745l0,0l1.489,0.745l0,0v0.749l0,0h-0.745h-0.748l-0.745-0.749V-78.57L189.937-78.57z"/>
</g>
<g id="Zeeland">
	<g id="g3511">
		<path id="path619" fill="#DBDBDB" stroke="#FFFFFF" stroke-width="0.8135" stroke-linejoin="bevel" stroke-miterlimit="10" d="
			M-13.711,197.545v0.748l-1.493,1.49h-0.745l0.745,1.489h0.746l0.747,1.491l0.746,1.488h1.491h1.492h0.746h0.746v-0.745h0.745
			v0.745v0.75l-0.745,0.749h-0.746h-0.746h-0.745h-0.748h-0.745l-0.746,0.744h-0.746l-1.493-1.487l-2.983-0.751h-0.746l-1.491,0.751
			l-0.747,0.748h-0.746l-1.493,0.739l-0.746,0.751l-0.747-0.751l-1.492,0.751l-0.745,0.745v1.491h0.745v0.746h0.746h0.746
			l0.747,0.751l0.746,0.747h0.745v0.75v0.745l0.746,0.748h0.745l0.748,0.751l0.746,0.744v1.494l0.745,0.744h0.746v0.749h0.747h0.746
			h2.983h0.746h0.746l0.745,0.75h0.748v-0.75l1.491,0.75l1.491,0.749l-0.746,0.746v0.749v0.745h0.746l2.983,1.491l0.748,0.747v4.476
			v0.749l0.746,2.986h-0.746h-0.748H-5.51l-0.746-0.748H-7h-0.748h-0.746l-0.745,0.748h-0.746l-0.745,0.749h-0.748h-0.745h-0.746
			v-0.749h-0.746l-2.237-1.489h-0.746l-0.746-2.238h-0.747l-1.49-2.236v-0.75l-0.746-0.749l0.746-0.748l-0.746-0.747v-0.749v-0.744
			h-0.748l-0.745-0.751l-1.491-1.487l-0.746-0.749H-24.9h-0.746l-0.746-0.75h-0.745l-1.493-0.749h-0.746l-0.746-0.746l-0.747,0.746
			h-0.746v0.749l-1.491-2.238h0.746l-0.746-0.749v-0.744h-0.75H-34.6h-0.746l-0.745,0.744h-0.746h-0.745h-1.493h-0.745h-0.746
			h-0.747v-0.744l-0.746-0.751h-1.491l-1.492,0.751h-0.746l-0.746,0.744l-2.237-0.744h-0.746l-0.745-0.751l-0.748,0.751l-1.49,0.744
			v0.749l-0.746,0.75v0.749l-0.745,0.745h-0.748l-0.746,0.75h0.746h0.748l-1.494,0.745v-0.745l-1.49-1.493l-0.747-0.745v-0.75
			l-0.746-2.238v-0.747h-0.746l-0.745-0.746l-1.493-0.749l-0.746-0.749l-0.745-0.75v-0.745v-1.493l0.745-0.745h-0.745h-0.746
			l-0.753-0.762h-2.238h-0.745h-0.748h-1.491v0.751h-0.746h-0.747l-0.746,0.745l-1.49,0.748l-0.745,0.751l-1.493,0.748h-0.747
			l-0.746,0.747l-0.747,0.748l-1.492,0.733l-0.745,0.751h-0.748l-0.747,0.746l-0.746,0.751v0.748v0.745v0.751l0.746,1.487h0.747
			l0.746,0.751l0.745,0.744l1.491,0.751v0.746h0.748l0.746,0.751l0.745,0.744v0.749l0.746,0.747v0.75l0.747,0.747v0.75l0.746,0.749
			l0.746,0.744l1.491,0.751v0.745h0.747l0.746,0.746v0.753h0.746h1.492h0.745v-0.753v-1.485h0.746v1.485l0.745,0.753h0.746h1.492
			l0.746-0.753v-0.746h0.745h1.493h0.745l-1.491-0.745l0.746-0.751l1.491-0.744h0.745v0.744l2.238-1.487v-0.751v-0.744l0.746,0.744
			v0.751H-54l-0.747,0.745v1.493H-54l-0.747,0.745l0.747,0.746v0.753l-0.747-0.753l-0.746,0.753h-0.745l0.745,0.748l0.746,0.745
			v0.75H-54v1.492v0.744h0.746l0.745,0.751h0.746v-0.751h0.746l1.493,0.751h0.745v0.744l1.493,0.749v0.75h0.745l1.491,1.486h0.748
			h1.49l1.491-0.747h0.748l0.745-0.746h1.491h0.747l0.746,0.746l0.745-0.746l0.746-2.987h0.746V234.9v-0.753h0.747v-1.489v-0.745
			v-0.748v-0.753v-0.746l1.491,0.746l1.491-0.746h0.748l1.49-1.49l0.746,0.751l0.747,0.748l0.746,0.745v0.75h0.746v0.745h0.745
			h0.748l0.745,0.751l0.746,0.748h1.49v0.745v1.493l1.493,0.749h0.746l0.745,0.748h0.748l1.49,0.747l1.491,0.748h1.494l0.745,0.745
			h1.492l2.238-0.745l1.493-0.748h0.746h0.745v0.748h0.746h0.748l1.491,0.745l0.745,2.238v1.493h2.238l1.491-0.75l-0.745-0.749
			H0.443v-0.745l0.746-2.238l-0.746-2.237v-0.749l1.491-0.749l-1.491-2.237l-2.983-8.214l-1.491-2.983v-0.746l0.745-1.492
			l0.746-2.238l0.745-1.489v-0.747l-0.745-0.75v-1.539l-2.984-3.733l-0.745-0.744v-0.753v-1.485v-0.749l0.745-1.489l0.746-0.749
			l0.748-0.75l2.237-0.747h-0.745l-1.491-0.75h-1.493h-0.746h-0.746l-1.493-0.747l-2.238-1.491h-0.747L-13.711,197.545z
			 M-56.23,231.123l0.745-1.491l-0.745,0.745V231.123z"/>
		<path id="path625" fill="#DBDBDB" stroke="#FFFFFF" stroke-width="0.8135" stroke-linejoin="bevel" stroke-miterlimit="10" d="
			M-9.234,243.807v0.747h0.746v0.748h-0.746v0.749h0.746h-0.746H-9.98l-0.745-0.749v-0.748v-0.747l0,0l0,0h0.745H-9.234z"/>
		<path id="path627" fill="#DBDBDB" stroke="#FFFFFF" stroke-width="0.8135" stroke-linejoin="bevel" stroke-miterlimit="10" d="
			M-32.359,243.807h0.745l0.746-0.745v0.745l0,0l0,0H-32.359z"/>
		<path id="path629" fill="#DBDBDB" stroke="#FFFFFF" stroke-width="0.8135" stroke-linejoin="bevel" stroke-miterlimit="10" d="
			M-11.475,246.046L-11.475,246.046v0.749l0,0v0.746l0,0h-0.745l0,0h-0.746v-0.746h-0.746l0,0h0.746h0.746l-0.746-0.749h0.746l0,0
			h-0.746l-0.746,0.749v-0.749l0,0h0.746l0,0h-0.746l0.746-0.745l0,0h-0.746l0,0h-0.747l0,0v-0.752v0.752h-0.746v-0.752h1.493h0.746
			l0,0l0.746,0.752l0,0L-11.475,246.046z"/>
		<path id="path631" fill="#DBDBDB" stroke="#FFFFFF" stroke-width="0.8135" stroke-linejoin="bevel" stroke-miterlimit="10" d="
			M-76.372,236.346v0.748h-0.746h-0.747l-1.492,0.745h-0.745h-0.748l-0.747,0.75h-0.746h-0.746h-0.745h-0.748h-0.745v0.747h-0.746
			l-0.746,0.75h-0.745h-0.748l-0.745,0.749h-0.748v0.745l0.746,0.75v1.488v0.75v0.745l0.745,0.748v1.49l-2.238,2.238l-0.747,0.75
			l0.747,0.747l1.492,1.489h-0.744h-0.745v0.749l0.745,0.75l0.746,0.749v0.744l-0.746,0.751l0.746,0.745h0.745l0.748,1.491h0.745
			l0.746,1.489l0.746-0.748l0.745,0.748v0.749v0.746h0.75l0.745,0.749h0.746h2.238l5.969-0.749l-0.748-5.221l-0.746-0.758
			l1.493-0.745l0.745,0.745h0.746v-0.745h0.745h0.746v-0.749h0.747l0.746,0.749l0.746,0.745l0.745-0.745l-0.745-1.493l1.492-0.745
			l0.745,0.745l1.492,0.75l0.745,0.745l1.493,0.748h0.746v-0.748h1.493l1.491,1.491h0.746l0.745,0.747v0.75h2.238l0.746,0.747
			v-0.747l2.983,0.747h0.746l0.747,1.491h0.746v-0.75l0.745,0.75l0.746,0.747h0.748v0.746l-0.748,0.753v1.489v2.234v1.493
			l0.748,0.747h0.745v-0.747l0.746,0.747h0.745h0.748h0.746h0.745h0.746h0.745h0.748l1.491-1.487h0.746h0.747v1.487h-0.747
			l-0.746,0.747l0.746,0.748h0.747h0.746l1.49-0.748h0.746l-0.746-1.49l1.493-0.744l0.746,1.487h0.745v-0.747h0.746h0.745
			l0.748-0.75v-0.748h1.491l0.746-1.49h0.747l0.746-0.748l1.491-0.747h0.748v0.747h0.745l0.746-0.747v0.747h1.49l0.748-0.747h0.745
			l0.746-0.745l1.493-1.493l1.49-0.749l1.491-0.748l3.73-2.985l0.746-0.748l7.459-8.951h-0.73v-0.75h-0.746v-0.749v-0.745
			l-0.748,0.745v-0.745v-0.75l-0.745-0.745h-0.746h-0.745l0.745-0.748h-0.745h-0.748v0.748l-0.745,0.745v0.75l0.745,0.745h0.748
			v0.749v0.75l-0.748-0.75l-0.745,0.75h0.745l-0.745,0.749h0.745v0.746l-0.745-0.746H-9.98l0.746,0.746v0.747l-0.746-1.491
			l-0.745-0.745h-0.748l0.748,0.745l0.745,0.75h-0.745v-0.75h-0.748h-0.745h-0.746v0.75h0.746v0.749h-0.746l-1.492-2.989h-0.746
			l-2.238-1.487v-0.751h-0.747v0.751l-2.983-0.751l-0.746-0.744v-0.749l-0.746-0.75v-0.745l-0.745-0.749l0.745-0.748h-0.745
			l-0.746-0.749v-0.75h-1.493h-0.746l-0.745-0.745h-1.492l-0.746,1.489v0.747h-0.746v1.493v0.745v0.75v0.747l-0.747,0.747h-1.491
			l-2.238,0.75l-1.491,0.749l-0.746,0.744h-0.745v0.751h-1.493v0.745l-0.745,0.75h-0.746h-1.498h-0.746l-0.745-0.75h-0.746v0.75
			l-0.747-0.75v0.75v0.749l-0.746-1.49v-0.748h-0.746h-0.745v-0.751h-2.238v2.24l-1.493-0.75v-0.745l0.748-0.751h-0.748h-1.49h-0.75
			h-0.745h-0.748v-0.744l-0.746-0.749l-0.745-0.75h-0.746v-0.747l-0.747-0.747h-2.238l-1.493-0.75h-0.746l-2.238-0.745h-0.745
			v-0.748h-0.746l-1.491-0.751h-0.748l-0.745-0.746l-0.746-0.751h-0.745l-0.748-0.746h-0.746v-0.747h-2.239h-0.746h-1.492V236.346z
			 M-8.489,246.795l-0.746-0.749l-0.746,0.749H-8.489z M-9.234,246.046h0.746h0.745h0.748l-0.748-0.745h-0.745h-0.746V246.046z
			 M-7.744,243.807l0.748,0.747h-0.748V243.807z M-6.251,243.807h0.746l-0.746,0.747V243.807z M-11.475,249.032h0.748v0.747h-0.748
			V249.032z"/>
		<path id="path659" fill="#DBDBDB" stroke="#FFFFFF" stroke-width="0.8135" stroke-linejoin="bevel" stroke-miterlimit="10" d="
			M-56.978,214.709L-56.978,214.709l-0.748-0.75v-0.749l0,0h0.748l0.746,0.749v0.75l-0.746,0.745l0,0V214.709z"/>
		<path id="path661" fill="#DBDBDB" stroke="#FFFFFF" stroke-width="0.8135" stroke-linejoin="bevel" stroke-miterlimit="10" d="
			M-53.247,197.545L-53.247,197.545L-53.247,197.545l-0.745,0.748v1.49v0.744l0,0l0.745,0.751l0.746-0.751l-0.746-0.744l0,0
			l0.746,0.744l-0.746,0.751l0,0l-1.493-0.751v0.751v0.748l0,0l0,0l-0.746-0.748l0,0l0,0l-0.745,0.748l0,0h0.745v0.749h-0.745
			v-0.749l-0.746,0.749l0,0v0.748v1.49h-0.747l0,0l0.747-1.49v-0.748l-0.747-0.749l0,0h-0.746l0,0l0,0l0,0h0.746l0.747-1.489
			l1.491-0.745v-0.752l0,0v-0.747l0,0l0,0v0.747l0,0l0,0h0.746l0,0l0,0l0,0h0.748v-0.747L-53.247,197.545L-53.247,197.545z"/>
		<path id="path665" fill="#DBDBDB" stroke="#FFFFFF" stroke-width="0.8135" stroke-linejoin="bevel" stroke-miterlimit="10" d="
			M-55.485,231.868l-2.237-1.491l-0.746-0.745l0,0l0.746-1.493l0.747,0.75l1.491,0.753l-0.745,0.744v0.749L-55.485,231.868z"/>
		<path id="path667" fill="#DBDBDB" stroke="#FFFFFF" stroke-width="0.8135" stroke-linejoin="bevel" stroke-miterlimit="10" d="
			M-54.74,228.883h-0.746l-1.491-0.746l0,0l1.491-0.745h0.746l0,0V228.883z"/>
		<path id="path907" fill="#DBDBDB" stroke="#FFFFFF" stroke-width="0.8135" stroke-linejoin="bevel" stroke-miterlimit="10" d="
			M-33.853,184.109L-33.853,184.109L-33.853,184.109v-0.746h0.746l1.491,0.746h-0.745H-33.853L-33.853,184.109z"/>
		<path id="path909" fill="#DBDBDB" stroke="#FFFFFF" stroke-width="0.8135" stroke-linejoin="bevel" stroke-miterlimit="10" d="
			M-6.251,200.525v-0.744l-0.745-0.753l-0.748-0.75v0.75h-0.745l-1.492-1.489l0.746-0.751l0,0H-9.98v0.751h-1.492v-0.751h1.492l0,0
			h2.238h0.748l0,0h-0.748l0,0h-0.745l0,0v0.751l0,0h1.492v0.748l0.745,0.747v0.749L-6.251,200.525L-6.251,200.525L-6.251,200.525z"
			/>
		<path id="path913" fill="#DBDBDB" stroke="#FFFFFF" stroke-width="0.8135" stroke-linejoin="bevel" stroke-miterlimit="10" d="
			M-29.376,182.618l-0.746,0.75h-0.747h-0.746v-0.75h0.746h0.747h1.491H-29.376z"/>
		<path id="path915" fill="#DBDBDB" stroke="#FFFFFF" stroke-width="0.8135" stroke-linejoin="bevel" stroke-miterlimit="10" d="
			M-31.615,200.525l-0.745,0.747h-0.746l0,0h-0.748l0,0l-1.492-0.747h-0.745l0,0l1.491-0.744v-0.753v0.753l-1.491,0.744h-0.746
			l0.746-1.491l-0.746-0.747v-1.493h-0.745v-0.745v-0.748l-0.748-1.49l-1.49-0.748l-0.746,0.748v-0.748l-2.238-0.745l0,0l0,0v-0.752
			l0,0v-0.751l-0.745-0.744h-1.494h-0.746l-0.746,0.744v0.751h0.746l0.746-0.751l0.747,0.751l-0.747-0.751l-0.746,0.751h-1.49
			l-0.748,1.487l-1.491,0.753l0,0l0,0l0,0h-0.746h-0.747l-1.49,0.744l-0.746,0.751v1.487l0,0h0.746v0.751h-0.748l0,0l0,0
			l-0.745-0.751l0,0l0,0h0.745l0,0v-1.487l0,0l-0.745-0.751h-0.748h-0.746v-0.744l-0.745-0.753l-0.746-1.487v-1.486v-1.493v-0.745
			l0.746-1.493l1.491-1.491l1.493-0.747h0.746h0.745l2.984-0.746l0.745-0.747h1.492h1.492l2.237,0.747v-0.747l0,0v-0.75l0.746-0.749
			v-0.745h0.745h0.748l-0.748,0.745h0.748l-0.748,0.749l0,0l0,0l0,0v-0.749l0,0h-0.741v0.749l-0.746,1.489h0.746h0.746h0.747h0.746
			l0,0l0,0h2.238l1.491-0.749l0,0l0.745,0.749l0,0l0.746,0.748v0.751h0.747l0,0h0.746h0.746l1.49-0.751l0.747,0.751h2.238l0,0v0.745
			l0,0v-0.745l0.748,0.745v1.487l0,0l0.745,0.754l1.491,1.486l0.748,1.491v1.488h0.746h1.491h0.745l1.494,0.746l0,0l2.237,1.492
			h0.746l0,0v0.75h0.746l1.491-1.489h0.747h0.746l0,0h2.238l0,0l0.745-0.753h0.746v1.492v0.75h0.745l0,0l-0.745,0.749l0,0h-0.746
			l0.746-0.749l0,0l-0.746-0.75V193.8h-0.745v0.745l-0.748-0.745l-2.238,0.745h-0.741l-0.746,0.75h-0.745v0.749l0.745,0.744l0,0
			v0.751l0,0l0,0l0,0l-0.745,0.748h0.745v-0.748l-0.745,0.748v0.747h-0.746l-0.746,0.749l-0.747,1.489h-0.746l-0.745,0.747
			l-0.746-0.747l-1.492,0.747l-0.746,0.746h-1.49v0.753h-2.238h-0.745h-1.492h-0.746l0,0l-1.493-1.492l0,0l0,0L-31.615,200.525
			L-31.615,200.525z"/>
		<path id="path929" fill="#DBDBDB" stroke="#FFFFFF" stroke-width="0.8135" stroke-linejoin="bevel" stroke-miterlimit="10" d="
			M-39.074,215.452v-0.753h-0.745h0.745l0,0V215.452L-39.074,215.452L-39.074,215.452z"/>
		<path id="path931" fill="#DBDBDB" stroke="#FFFFFF" stroke-width="0.8135" stroke-linejoin="bevel" stroke-miterlimit="10" d="
			M-41.312,205.008L-41.312,205.008h0.747l0,0v0.748h0.746h0.745l0.746,0.739v0.751l0.748,1.487l0.745,0.749v0.746l0,0h0.746v0.751
			v0.747l0,0v0.75l0,0l-0.746,0.747h-1.493l0,0l0,0l-0.746,1.491l0,0h-1.491l-0.747-0.751l-0.746-0.746l0,0h-1.491h-0.746v0.746
			h-0.749l0,0h-0.746h-1.49l-0.748-0.746h-1.491l-2.983,0.746l-0.746,0.751l-0.745,1.487h-0.748l-0.746,1.49l0,0v-0.749
			l-0.745-0.746l0.745-0.745v-0.751v-0.748l-1.491-1.488h0.746v-0.75l0.745-0.747l0,0l-0.745,0.747l0,0l-0.746,0.75l0,0l-0.747-0.75
			l-0.746-0.747h-0.746l-0.745-0.75h-0.746v-1.489h-0.747v-0.749v-0.747h0.747l0,0h-0.747h-0.746l0,0l0,0l2.234-0.744l2.238-0.745
			v-0.749l0,0h0.747l0,0v0.749h0.746h0.745l0.746,0.752h0.748l0.745,0.751l0,0h0.746l0.745-0.751h0.746l1.492-0.744l0,0l1.493,0.744
			l0.748-0.744l0,0l1.49-0.749l0,0h1.493l0.746,0.749l1.491-0.749h0.748V205.008z"/>
	</g>
</g>
<g id="Zuid-Holland">
	<path id="path483" fill="#DBDBDB" stroke="#FFFFFF" stroke-width="0.8135" stroke-linejoin="bevel" stroke-miterlimit="10" d="
		M-29.376,177.394l0.746,0.747l0,0L-29.376,177.394h-1.493l-1.49,0.747l-1.492,0.745h-0.747v-0.745l0,0l1.492-0.747v-0.748
		l0.746-0.747l0.745-0.746v0.746h0.746L-29.376,177.394L-29.376,177.394z"/>
	<path id="path449" fill="#DBDBDB" stroke="#FFFFFF" stroke-width="0.8135" stroke-linejoin="bevel" stroke-miterlimit="10" d="
		M25.079,90.084l-4.476,9.699l-1.493,2.24l-0.745,1.493l-2.238,3.73l-0.748,0.749v0.747l-1.49,2.238l-0.745,1.493l-2.238,2.985
		l-4.477,5.97l-2.237,1.491v0.747L2.7,125.16H1.954v0.745v0.746H2.7L1.954,127.4v-0.749H1.208L0.463,127.4l-0.746,1.491
		l-0.748,0.747l-2.237,2.236l-1.493,1.493l-2.237,2.985l-0.748,0.748l-1.49,1.489l-0.746,0.747v0.747l-1.492,2.24l-1.491,0.746
		l-1.492,1.491h-0.746l-0.745-0.748l-3.73-0.745l-0.746,0.745h-0.748h-0.745l-0.746,0.748v0.747l-0.745,0.747l-0.746,1.491
		l0.746,0.747l0.745,0.746v0.747l-1.49,1.491l-0.747,1.493l-1.492,2.238h0.746h0.746l0.747,0.745l0.746-0.745l2.983-0.748h0.746
		l0.745,1.491h-0.745v0.749l-1.494,1.491v0.747l-0.745,0.744v0.749l0.745,0.746l2.984,4.477v0.749v0.744l-0.746,0.749l1.493-0.749
		l0.746,0.749l0.746,0.747l0.745,0.744v0.749h0.748h0.747h0.746h0.746l-0.746,0.746l0.746,0.745h0.745v-0.745h0.748h0.745h0.746
		l0.746,0.745l1.493,2.24h0.745h0.746h0.745v0.747h1.493l0.745,1.491l0.746,0.747h0.745h0.748l-0.748,0.748h-0.745l0.745,1.49
		l0.748,0.748l2.238,0.747v0.744h1.493l1.49,0.751h1.493v0.745l2.984,0.75l1.491,1.487h0.745l1.494,0.751l2.237,1.487h0.748
		l0.746,0.749h1.491v0.748h2.983h0.746l1.493,0.751h0.745h0.746l0.746,0.748h0.747l0.746,0.745h0.745l1.493-0.745h0.745l2.238-0.748
		h0.748l0.745-0.751h1.491l0.748-1.487l0.745,0.749h0.746l1.49-0.749v0.749l2.984-0.749l0.747-0.75l0.746-0.747l1.491-0.751
		l2.238-1.487l0.745-1.486l0.746-0.754l0.748-2.238l0.745-0.744l0.746-0.747v-0.749l0.745-0.746h0.748l1.49-0.747h1.491h1.493h1.491
		h0.745l1.492-0.745h0.746l1.493-2.237h0.746l1.491-0.751l0.747-0.745h1.492h0.745h0.746l1.493,0.745h1.491h0.748l0.745,0.751h1.491
		h0.746h1.493v-0.751l0.746-2.983h-1.491h-0.748h-0.746l-0.745-0.746h0.745l-0.745-0.747v-0.746v-0.749l0.745,0.749l1.493-0.749
		l0.745,0.749l2.238-0.749l0.746,0.749h0.745v-0.749l-0.745-0.745v-0.748v-0.747h0.745h0.746H82.5l0.748-0.745v-1.493h0.745h1.509
		h0.748v-0.746l0.745-0.749l0.746-2.236v-0.747h0.745l0.746-1.491l0.748-0.748h-0.748l0.748-0.747h-0.748h-0.744h-0.745
		l-2.984-1.489l-1.49-0.749l-2.983-0.745l0.746-1.493l-0.746-2.238h-0.746h-0.747v0.747l-0.746,0.746h-0.749l-1.493-1.491h-0.745
		h-0.746l-0.745,0.747l-0.746,0.746v0.747l-0.748,0.747H71.33l-0.746-0.747h-0.745h-0.748l-0.746,0.747l-0.745,1.491h-0.746v0.748
		H66.11l-0.748,0.747h-0.745h-1.491h-0.747v-0.747v-1.491l-0.746-0.748v-0.747l-0.745-0.747l-0.746-0.746l-0.748-0.747l-0.745-1.491
		l-0.746-1.493l-0.745-0.745l2.983-0.747h0.746l-0.746-2.24h-0.748h-0.745h-0.75h-0.745l-0.746,0.749h-0.748l-0.745-1.491
		l0.745-0.749v-0.746h0.748l0.746-0.745l0.745-2.238l2.238-1.493h0.746l0.745-0.747l0.746-0.748h-2.984h-1.491l0.746-0.745h-0.746
		v-0.747l-0.745-2.24v-2.238h0.745l-0.745-0.744l-2.984-1.493v-0.747h0.746h0.745v-0.747l0.748-0.746h-0.748l0.748-0.747
		l0.746-0.747h1.491v0.747h0.745h1.493h0.745h0.746V117.7l2.237-0.749l-2.983-2.236l-0.745-0.749h-1.493l-0.745-0.745l-0.746-0.747
		v-0.747h-0.745l-0.746-0.747v-0.745h-0.748v-0.749v-1.491l-0.745-0.747v-0.747h-0.746h-0.745h-0.746v0.747l-0.748,0.747h-1.491
		h-0.747l-0.748,1.491l-0.746-0.745l-0.745-0.747l0.745-2.238l-2.237-0.747l-0.746,0.747l-0.745,0.745H43.73h-0.746l-0.747-0.745
		v0.745h-0.746l-1.49,0.747l-0.748,0.747h-0.747h-0.746h-2.24l-1.49-0.747l-0.745,0.747h-0.748l-0.746-0.747h-0.745v-0.747v-0.745
		v-0.747h0.745v-0.749l0.746-0.745v-1.493v-0.747v-0.745v-0.747l0.748-0.747l0.745-0.747l0.746-0.745v-0.749v-0.745h0.745v-1.494
		l0.748-0.747l0.746-1.492l-1.494-0.747h-0.745h-0.746l-0.745,0.747l-0.748-0.747v1.494L30.3,92.324L25.079,90.084z
		 M-18.934,167.693l-0.745,0.747h0.745V167.693z"/>
	<path id="path479" fill="#DBDBDB" stroke="#FFFFFF" stroke-width="0.8135" stroke-linejoin="bevel" stroke-miterlimit="10" d="
		M-24.155,166.2l-1.493,0.745h1.493V166.2z M-24.155,166.945l-2.238,0.748h-0.745h-0.748l1.492-0.748l-2.237,0.748l-4.477,1.49
		l-1.492,0.748h-0.746l-2.238,0.747h-0.747l-0.746,1.491v0.747v0.746l0.746,2.238v0.747h0.747v0.748h0.746l1.491-0.748v-0.747
		h-0.745v-0.746h0.745h0.746h0.747l0.746-0.747h0.746h0.745h0.746l0.747-0.747l0.746-0.746l1.491,0.746h1.492l1.491,0.747v0.747
		l0.748,0.746l0.746,1.493h0.745v1.49v0.746h-0.745v0.749h0.745l-0.745,0.745v0.748l0.745,1.492h0.746v0.746l0.745,0.749v0.744
		l0.748,1.49v1.493h0.746h0.745l0.746,0.747l0.747-0.747v0.747h1.491h1.499h0.747h0.746l0.746,0.75l2.237,0.747l0.746,1.491
		l0.746,0.745h1.493h0.745v0.75h1.491l0.748,0.747h0.746v0.75v0.747l1.491,0.745l0.745,0.748h2.238H1.95h0.747l1.49-0.748h1.492
		h0.747l2.238-0.745l1.493-0.747l0.746-0.75l0.745-1.491v-0.745h-0.745v-0.751h0.745h0.746h0.748h0.745l1.491-0.746H14.63v-0.747
		v-0.75h-0.746l-0.745,0.75h-1.494h-1.49H8.664H7.922H6.431l-1.493-2.238h-1.49l-0.746-0.752H1.956l-0.746-0.745v-0.746
		l-1.491-0.749v-0.749v-0.75h-0.747l-2.238-2.236l-2.238-2.238H-6.25v-0.745h-1.493l-0.745-0.748h-0.746l-1.491-1.492l-1.493-0.746
		h-0.746l-2.983-1.491l-0.746-0.747l-2.238-0.747v-0.748l-0.745-0.745h-0.746v0.745l-0.747-0.745h0.747v-0.748v-0.747h-0.747v0.747
		h-0.746v-0.747l-1.49-0.745v-0.746L-24.155,166.945z M-38.329,177.394l-0.746,1.49l-0.745,0.746l-1.493,0.749h0.747l1.491,0.745
		l0.746,0.748h0.748v-0.748l-0.748-0.745l-0.746-0.749L-38.329,177.394z"/>
	<path id="path547" fill="#DBDBDB" stroke="#FFFFFF" stroke-width="0.8135" stroke-linejoin="bevel" stroke-miterlimit="10" d="
		M4.937,182.618l1.493,0.75l2.238,0.747l1.492,0.75l0,0l0.746,0.745H10.16l0,0l-1.492,0.749H6.429H5.683l-0.746-0.749l-0.745-0.745
		l0,0H3.446l-1.493-1.491H1.208l-0.745-0.746l0,0l0,0l0.745-0.751l0,0H2.7L4.937,182.618z"/>
	<path id="path911" fill="#DBDBDB" stroke="#FFFFFF" stroke-width="0.8135" stroke-linejoin="bevel" stroke-miterlimit="10" d="
		M-27.138,181.123h0.745l0.746-0.745l0,0v0.745v0.748l0.745,2.238l1.493,1.49l0,0l0,0l-0.746,0.748h-0.748v-0.748l-0.745-0.745
		v-0.751l-0.746-1.487l-0.745-0.75l0,0V181.123z"/>
	<path id="path949" fill="#DBDBDB" stroke="#FFFFFF" stroke-width="0.8135" stroke-linejoin="bevel" stroke-miterlimit="10" d="
		M15.381,190.824l-0.745,0.747l0,0h0.745l0,0h-0.745v0.748l-0.746-0.748l0,0l0,0L15.381,190.824z"/>
</g>
<g id="Noord-Brabant">
	<path id="path100" fill="#DBDBDB" stroke="#FFFFFF" stroke-width="0.8135" stroke-linejoin="bevel" stroke-miterlimit="10" d="
		M66.108,170.677l-0.748,0.745l-1.491,0.748h-0.746l-1.493,2.238h-0.745l-1.494,0.747h-0.745h-1.491h-1.493h-1.491l-1.491,0.746
		h-0.748l-0.745,0.747v0.748l-0.746,0.747l-0.745,0.745l-0.748,2.238l-0.745,0.748l-0.746,1.492l-2.238,1.491l-1.491,0.745
		l-0.746,0.748l-0.747,0.745l-2.984,0.75v0.749l-1.491,0.746l-0.745,0.753h-0.746l-0.747,0.744l-0.746,0.747l-5.969,1.491H28.07
		h-0.753l-2.238,0.749h-1.491l-2.238-0.749l-0.745-0.744h-0.746l-0.748-0.753h-0.745h-1.49l-0.746,0.753l-1.492,0.744l-0.746,0.749
		v0.747l-0.745,1.491L12.4,196.81l-0.745,0.749l-0.746,0.749l-1.49,0.748H8.671l-0.745,0.751H7.181v-0.751H6.435l-0.747,0.751H4.197
		H3.452l-0.745,0.744H1.959H1.213l-0.745,1.493h-0.746v-0.752h-0.747H-1.77l-2.238,0.752l-0.747,0.745l-0.746,0.749l-0.746,1.489
		v0.749v1.489v0.749l0.746,0.744l2.983,3.733v1.494l0.746,0.748v0.749l-0.746,1.489l-0.745,2.238l-0.746,1.489v0.749l1.491,2.982
		l2.984,8.214l1.491,2.236l-1.491,0.749v0.748l0.745,2.238l-0.745,2.238v0.747h0.745l0.746,0.748h5.221v0.737l0.746,0.747v2.236
		l0.745-0.745l2.238,0.745h0.746h0.745h0.748h0.745l0.746-0.745l1.493-0.748h0.746v-0.751v-0.744l-3.731-5.228l-0.748-2.236
		l0.748-0.748h0.745v-0.751v-0.744v-0.749v-0.75h-0.745l-0.748-0.745l0.748-0.753l5.222-2.234h1.492l0.746-0.748l0.745-0.749h0.746
		h0.747l5.221-0.746l0.746,1.493l-1.491,3.731l0.745,4.477l3.731-1.493h0.746h1.493l2.984,0.75l1.49,0.749h0.745v-0.749l0.748,0.749
		l1.491-0.749l-0.745-2.988l2.237-0.745h0.746l0.745-2.24l1.492-0.746l0.747-0.745l0.746-1.493l1.491-0.745l0.748-0.754
		l-0.748-0.745h0.748h0.745v-0.747l1.491-0.752l0.748,0.752v0.747h0.746h0.745l1.49,0.745h0.748v0.754v0.745l0.746,0.748
		l0.745-0.748l0.746,0.748l-0.746,1.49v1.493h0.746v0.745h-0.74l-0.745,0.748l-0.746,0.745l0.746,2.988v0.749h0.745h0.746v0.746
		h-0.746l-2.238-0.746l-0.745-0.749h-1.491v-0.75h-0.746l-1.493,0.75v0.749v0.746l0.745,0.753l1.493,0.744h0.745l2.238-0.744h1.491
		h1.491l0.748,0.744h0.746v-0.744h0.745h0.746h0.747h0.746l1.491,1.485v0.753h0.748l0.745,0.744h0.746l2.983-4.477l4.477-2.986
		v-1.489h0.745v-0.749l-0.745-0.745v-0.752l0.745-0.747v-0.748l0.748-0.749l1.491-0.746h0.746l-0.746,0.746l0.746,0.749v0.748h0.747
		h2.984l2.237,6.715l-0.745,1.49l-2.238,4.478l4.477,5.222v0.748l0.745,0.747l0.746,0.75v5.224l2.983,0.75l0.746-0.75l2.237-0.747
		h0.746v-0.746l4.476,2.982l-1.491,5.974l0.746,0.745l2.984-0.745l2.983,0.745h2.238h1.491l0.747-0.745l0.745-1.487l2.238,0.744
		l2.982,0.749l1.493,0.747l2.238-2.238l0.745-0.747l2.238-0.747l0.745-0.746l0.748-0.751v-0.748h0.747l2.984,0.748v0.751
		l0.745,1.487l2.238,1.492l0.749,0.746v0.745v0.754v0.745v0.749v1.489l0.744,2.986h0.745l2.238-0.748h0.748l2.238-0.745v-2.99
		l0.747-3.731l1.487-2.989l0.749-1.489l2.238-2.238l2.984-1.488h0.745l3.729-0.75l1.492-0.747h0.746l0.749-0.75l5.966-1.488
		l2.238-0.75h0.748l0.745-0.747h0.747l1.491-1.489l2.238-2.236l1.489-0.749l-1.489-2.241l-1.491-2.983l-2.985-5.227v-0.745
		l-1.491-6.719l-0.745-1.485v-1.491l-0.747-2.238l-0.748-6.713l2.986,0.746l2.236,0.747l1.492,0.751h1.493h1.487l1.492-0.751
		l2.238-0.747l1.491-0.746l1.491-0.751v0.751h0.745l0.747,0.746l1.491,1.492v-0.751h0.747h0.746l-0.746-0.746v-0.755v-0.746v-0.747
		v-0.747l-0.747-1.493l-0.745-0.744v-0.749v-2.238l-0.748-0.75v-0.745l-0.747-0.752l-0.747-0.747l-0.744-0.747l-2.238-0.746v-0.749
		l-0.747-0.748v-2.24v-0.745v-0.748v-1.49h-0.746v-0.752v-1.488l-0.745-2.238h-0.749l-0.746-0.746h-1.488l-1.493-0.751h-1.491
		l-0.747-0.748v-1.488l-0.745-1.489v-0.749v-0.75h-0.748l-0.747-0.745h-0.746H158.6h-2.236h-0.746l-2.238,0.745h-0.747h-1.491
		h-0.745h-0.746l-0.749-0.745V181.1l-0.745-0.747l-0.744-0.747h-0.749h-0.746l-0.747-0.746h-0.745v-1.491h-0.748l-0.745-0.747
		h-0.749h-0.746l-0.745-0.747l-0.747-0.748l-0.748-0.745v-1.493l-0.729-0.719h-1.49h-0.748l-0.745-0.748l-1.493-0.745h-0.745h-0.748
		h-1.49h-0.744l-0.749,0.745v0.748l-0.747,0.747h-0.744l-0.747-0.747h-0.749h-0.744v-0.748l-0.749-0.745h-0.744h-0.747h-0.747v0.745
		l-0.748,1.493l-0.745,0.746h-1.489h-1.492h-0.746l-0.749-0.746l-0.744-0.747v-0.748h-0.749l-0.745,0.748v0.747l-0.746,0.746
		l-0.745,0.747l-1.493,2.238v0.748l-0.745,1.49v1.493v1.491h-0.747v0.749l-3.731,1.489l-1.493,0.749v0.745h-0.745l-1.493-0.745
		h-1.487l-0.747,0.745l-0.746,0.75l-0.748-0.75l-1.491-0.745l-0.745-0.749l-0.748,0.749H95.19h-0.745h-1.491h-0.748h-1.491h-1.492
		l-1.491,0.745l-0.746-0.745v-0.749h0.746l0.745-0.746l0.746-0.749l-0.746-0.748v-0.751v-0.743v-0.748l-2.238-0.747l-0.747-0.744
		l-0.746-0.749h-0.745l-0.746,0.749l-0.748,0.744h-0.745v-0.744h-0.746v-0.749l-0.745-0.747v-0.746h-0.746l-0.747-0.749
		l-1.492-0.744l-0.745-0.747h-0.748v-0.747v-0.746h-0.745h-1.492l-0.745-0.749h-0.748h-1.491l-1.492-0.745H68.34h-0.745h-1.487
		V170.677z M66.853,240.078h-0.745h-0.748l0.748,0.752L66.853,240.078z M66.108,231.868h0.745v0.75l0.746,0.749h0.745v0.745v0.754
		h-0.745l-0.746-0.754h-0.745l0.745-0.745l-0.745-0.749V231.868z M67.599,231.868l0.745,0.75h-0.745V231.868z"/>
	<path id="path1011" fill="#DBDBDB" stroke="#FFFFFF" stroke-width="0.8135" stroke-linejoin="bevel" stroke-miterlimit="10" d="
		M66.853,231.868v0.75l0.746,0.749l0,0v-0.749v-0.75l0.745,0.75l0,0h-0.745l0,0v0.749l0,0h0.745v0.745l0,0v0.754l0,0h-0.745
		l-0.746-0.754h-0.745l0.745-0.745l-0.745-0.749v-0.75H66.853L66.853,231.868z"/>
</g>
</svg>
